<?xml version="1.0" encoding="UTF-8" standalone="no"?>
<svg
   width="11.000002"
   height="10.999999"
   viewBox="0 0 41.509442 41.50943"
   version="1.1"
   id="svg8"
   sodipodi:docname="icon.svg"
   inkscape:version="1.2.2 (b0a8486541, 2022-12-01)"
   xmlns:inkscape="http://www.inkscape.org/namespaces/inkscape"
   xmlns:sodipodi="http://sodipodi.sourceforge.net/DTD/sodipodi-0.dtd"
   xmlns="http://www.w3.org/2000/svg"
   xmlns:svg="http://www.w3.org/2000/svg">
  <sodipodi:namedview
     id="namedview15"
     pagecolor="#ffffff"
     inkscape:zoom="12.952684"
     inkscape:cx="0.96505095"
     inkscape:cy="3.8216018"
     inkscape:window-width="1920"
     inkscape:window-height="1011"
     inkscape:window-x="0"
     inkscape:window-y="0"
     inkscape:window-maximized="1"
     bordercolor="#000000"
     borderopacity="0.25"
     inkscape:showpageshadow="2"
     inkscape:pageopacity="0.0"
     inkscape:pagecheckerboard="0"
     inkscape:deskcolor="#d1d1d1" />
  <defs
     id="defs33287" />
  <g
     transform="translate(-308.56662,-331.86605)"
     id="g33293">
    <g
       transform="translate(-84.906345,-2.4160862)"
       id="g33291">
      <path
         d="m 407.73225,371.48146 c -6.20473,-1.77231 -9.83205,-7.84725 -9.83565,-16.47247 -10e-4,-2.7125 0.0796,-3.3565 0.51409,-4.10044 1.11951,-1.91687 2.79004,-1.80425 3.98091,0.26838 0.97488,1.69671 1.61009,2.49636 2.28247,2.8734 0.37749,0.21167 1.95024,0.32455 4.60799,0.33073 3.68917,0.009 4.08024,-0.036 4.56406,-0.51979 0.76818,-0.76819 0.66968,-1.14705 -0.69888,-2.68797 -1.72007,-1.93671 -2.31206,-3.37756 -2.3199,-5.64641 -0.0149,-4.31977 3.29888,-7.62903 7.64899,-7.63854 2.24118,-0.005 3.84467,0.6353 5.3423,2.13292 1.05069,1.0507 2.19832,3.13418 2.19832,3.99098 0,0.34177 0.81857,0.87939 2.91042,1.91152 2.04942,1.01119 2.91042,1.57307 2.91042,1.89932 0,0.66094 -0.55649,0.86606 -3.83646,1.41408 -2.89167,0.48314 -2.91764,0.49407 -4.0321,1.69529 -0.96679,1.04206 -1.11294,1.35158 -1.05833,2.24144 0.0585,0.953 0.18347,1.10567 1.62467,1.98438 1.1976,0.73019 1.75232,1.29094 2.38124,2.40715 0.72491,1.28656 0.81709,1.68519 0.79535,3.43959 -0.0562,4.53682 -2.88814,8.54059 -7.15616,10.11737 -1.3561,0.501 -2.18082,0.58125 -6.57759,0.64005 -3.54432,0.0474 -5.38665,-0.0355 -6.24616,-0.28098 z m 11.28119,-1.62609 c 4.13325,-1.07657 6.72528,-4.23658 6.93406,-8.45348 0.13498,-2.72625 -0.30627,-3.60401 -2.4702,-4.91391 -1.78381,-1.0798 -2.48639,-2.17688 -2.48702,-3.88349 -2.6e-4,-1.02305 0.14423,-1.26911 1.60314,-2.72802 1.47261,-1.47262 1.73726,-1.62636 3.24114,-1.88293 0.90068,-0.15366 1.74158,-0.37543 1.86867,-0.49283 0.12709,-0.11741 -0.50344,-0.58424 -1.40117,-1.03742 -0.89774,-0.45317 -1.67469,-0.96832 -1.72657,-1.14476 -0.0519,-0.17644 -0.24246,-0.89337 -0.42352,-1.59316 -0.73738,-2.85012 -4.02393,-4.83347 -6.87573,-4.14933 -4.74457,1.1382 -6.42484,7.17001 -2.91069,10.44877 1.59259,1.48591 1.9678,2.88157 1.18279,4.3996 -0.66815,1.29206 -1.70465,1.55352 -6.15856,1.55352 -2.1693,0 -4.32989,-0.0771 -4.80132,-0.17143 -1.06129,-0.21225 -2.36692,-1.4884 -3.3264,-3.25127 -0.40106,-0.73689 -0.83229,-1.3398 -0.95829,-1.3398 -0.57014,0 -0.79125,1.61121 -0.67173,4.89479 0.0997,2.73947 0.26467,3.87043 0.81039,5.55625 1.35321,4.18036 3.81039,6.87023 7.39066,8.09053 1.87727,0.63985 8.86541,0.70134 11.18035,0.0984 z m -7.94544,-3.65186 c -1.99325,-0.51657 -3.51279,-1.40051 -5.24103,-3.04878 -1.81867,-1.73453 -2.42566,-2.71157 -1.96854,-3.16869 0.34296,-0.34296 1.25644,-0.41359 1.25644,-0.0971 0,0.59947 3.20602,3.38147 4.72621,4.10114 3.61581,1.71173 8.40114,0.5441 7.56097,-1.84489 -0.14311,-0.40694 -0.63996,-0.97877 -1.10412,-1.27074 -0.87738,-0.55189 -1.16056,-1.55117 -0.51028,-1.80071 0.59471,-0.22821 2.02946,0.63978 2.70793,1.63824 0.85147,1.25305 0.88498,3.10771 0.0719,3.98042 -1.35309,1.45238 -4.93859,2.17486 -7.49951,1.51116 z m 9.13092,-21.99617 c -0.47144,-0.56804 -0.1224,-1.24783 0.58863,-1.1464 0.67811,0.0967 0.96234,0.96632 0.42679,1.30572 -0.49602,0.31434 -0.64124,0.29155 -1.01542,-0.15932 z"
         fill="transparent"
         id="path33289" />
    </g>
  </g>
</svg>
