<?xml version="1.0" encoding="UTF-8" standalone="no"?>
<svg
        xmlns:inkscape="http://www.inkscape.org/namespaces/inkscape"
        xmlns:sodipodi="http://sodipodi.sourceforge.net/DTD/sodipodi-0.dtd"
        xmlns:rdf="http://www.w3.org/1999/02/22-rdf-syntax-ns#"
        xmlns:cc="http://creativecommons.org/ns#"
        xmlns:dc="http://purl.org/dc/elements/1.1/"
        width="18"
        height="18"
        viewBox="0 0 67.924528 67.924528"
        version="1.1"
        id="svg8"
        sodipodi:docname="logo.svg"
        inkscape:version="1.2 (dc2aedaf03, 2022-05-15)"
        xmlns="http://www.w3.org/2000/svg">
    <sodipodi:namedview
            id="namedview15"
            pagecolor="#ffffff"
            bordercolor="#000000"
            borderopacity="0.25"
            inkscape:showpageshadow="2"
            inkscape:pageopacity="0.0"
            inkscape:pagecheckerboard="0"
            inkscape:deskcolor="#d1d1d1"
            inkscape:document-units="px"
            showgrid="false"
            inkscape:zoom="12.952684"
            inkscape:cx="44.739763"
            inkscape:cy="22.311979"
            inkscape:window-width="1920"
            inkscape:window-height="1009"
            inkscape:window-x="1912"
            inkscape:window-y="-8"
            inkscape:window-maximized="1"
            inkscape:current-layer="svg8"/>
    <defs
            id="defs2"/>
    <metadata
            id="metadata5">
        <rdf:RDF>
            <cc:Work
                    rdf:about="">
                <dc:format>image/svg+xml</dc:format>
                <dc:type
                        rdf:resource="http://purl.org/dc/dcmitype/StillImage"/>
            </cc:Work>
        </rdf:RDF>
    </metadata>
    <g
            id="layer1"
            transform="translate(-282.6377,-331.86605)">
        <g
                id="g106"
                transform="translate(-84.906345,-2.4160862)">
            <path
                    style="fill:#f0f4f1;stroke-width:0.264583"
                    d="m 367.54404,368.14881 v -33.86667 h 33.86666 33.86667 v 33.86667 33.86666 H 401.4107 367.54404 Z"
                    id="path122"/>
            <path
                    style="fill:#d5f2f5;stroke-width:0.264583"
                    d="m 367.54404,368.14995 v -33.86781 h 33.86666 33.86667 v 32.80833 32.80833 h -4.21736 -4.21736 l -0.0821,0.99219 -0.0821,0.99219 -29.56718,0.0673 -29.56719,0.0673 z m 36.60385,28.88367 c 0.2674,-0.29547 0.54871,-1.35159 0.72236,-2.71198 0.44627,-3.49611 0.41664,-3.41867 1.308,-3.41867 1.36063,0 2.35072,-1.50715 1.52954,-2.32833 -0.17463,-0.17463 -0.71149,-0.3175 -1.19303,-0.3175 h -0.87554 l 0.0686,-1.52136 0.0685,-1.52135 -0.8443,-0.0817 c -1.09888,-0.10639 -1.93236,0.6969 -1.93788,1.86769 -0.005,1.1496 -0.21504,1.41358 -1.37585,1.73263 -0.80964,0.22252 -1.15786,0.18105 -1.97418,-0.23513 -0.54512,-0.27793 -1.26744,-0.50532 -1.60515,-0.50532 -1.08467,0 -2.42255,0.73737 -2.97148,1.63773 -0.39982,0.65577 -0.53422,0.7481 -0.53496,0.36748 -10e-4,-0.71332 -0.76455,-1.47604 -1.47691,-1.47604 -0.33008,0 -0.95389,0.29766 -1.38625,0.66146 -0.89406,0.7523 -1.10658,0.81099 -1.10658,0.30559 0,-0.6216 -0.96966,-1.29544 -1.5837,-1.10055 -0.78915,0.25047 -0.96968,0.90291 -1.19108,4.30457 -0.2113,3.24655 -0.0612,3.76643 1.08746,3.76643 0.48497,0 0.79586,-0.30895 1.35667,-1.3482 0.40014,-0.74152 0.90612,-1.58149 1.1244,-1.86661 0.36702,-0.47941 0.39687,-0.40519 0.39687,0.98669 0,1.76788 0.42632,2.2402 1.63969,1.81665 0.70579,-0.24637 0.75284,-0.36784 0.97525,-2.51802 l 0.23368,-2.25916 1.28767,1.25423 c 0.70822,0.68983 1.28767,1.31852 1.28767,1.39709 0,0.0786 -0.35689,0.0715 -0.79309,-0.0158 -1.00625,-0.20125 -1.58816,0.26631 -1.58816,1.27608 0,0.64352 0.16603,0.84422 0.9796,1.18415 2.11275,0.88277 4.31207,-0.41498 4.31207,-2.54441 0,-0.85083 -0.1769,-1.21322 -0.96663,-1.9802 -0.97968,-0.95145 -1.00322,-1.16202 -0.0743,-0.66488 0.35298,0.18891 0.67098,0.18868 1.02488,-8e-4 0.34122,-0.18261 0.56804,-0.18573 0.67707,-0.009 0.0902,0.14591 0.51413,0.2653 0.9421,0.2653 0.90609,0 0.9071,0.007 0.46731,3.04838 -0.17096,1.18238 -0.23422,2.34942 -0.1406,2.59341 0.23039,0.60037 1.57347,0.57496 2.13028,-0.0403 z m -1.61324,0.005 c -0.26375,-0.17042 -0.24872,-0.76617 0.0738,-2.92299 0.22277,-1.48992 0.33746,-2.8183 0.25486,-2.95195 -0.0826,-0.13365 -0.49178,-0.17469 -0.90928,-0.0912 -0.60051,0.1201 -0.82387,0.0308 -1.06916,-0.42755 -0.40879,-0.76382 0.24912,-1.53186 1.40923,-1.64513 0.76379,-0.0746 0.84879,-0.18337 1.09677,-1.40376 0.34375,-1.69169 0.54563,-1.98438 1.36874,-1.98438 0.6652,0 0.67001,0.0156 0.48757,1.5875 l -0.18424,1.5875 h 1.2166 c 1.01377,0 1.2166,0.0828 1.2166,0.49678 0,0.63199 -0.43797,0.98184 -1.51832,1.21282 -0.47127,0.10076 -0.9118,0.27209 -0.97894,0.38073 -0.0671,0.10864 -0.2539,1.25831 -0.41501,2.55481 -0.40406,3.25162 -0.99345,4.28901 -2.0492,3.60681 z M 395.603,395.7293 c -0.90841,-0.73558 -0.47377,-1.38675 0.92561,-1.38675 1.77448,0 1.74975,-0.57825 -0.0782,-1.82862 -2.05557,-1.40606 -1.08702,-3.99221 1.49513,-3.99221 1.59397,0 2.86172,1.16661 2.28384,2.10163 -0.21903,0.3544 -1.11621,0.36453 -1.33221,0.015 -0.19722,-0.31911 -1.36912,-0.35335 -1.55934,-0.0455 -0.0745,0.12047 0.39378,0.66135 1.04052,1.20196 0.64674,0.5406 1.2461,1.26265 1.33191,1.60455 0.18585,0.74048 -0.47632,2.13807 -1.19531,2.52286 -0.78695,0.42116 -2.27537,0.32256 -2.91194,-0.19291 z M 388.07061,395.7 c -0.25269,-0.40886 0.44527,-6.24028 0.79224,-6.61919 0.59397,-0.64864 1.17077,-0.14608 1.17077,1.02007 0,0.58665 0.0455,1.06663 0.10117,1.06663 0.0556,0 0.57741,-0.47625 1.15949,-1.05833 1.19186,-1.19186 2.24353,-1.39722 2.70826,-0.52884 0.33572,0.62728 0.0688,5.24718 -0.33247,5.75436 -0.14391,0.1819 -0.56003,0.33073 -0.92471,0.33073 -0.66265,0 -0.66298,-0.001 -0.54053,-2.11667 0.0674,-1.16416 0.0323,-2.11666 -0.0779,-2.11666 -0.18789,0 -1.39376,1.84135 -2.41173,3.68266 -0.4327,0.78267 -1.32608,1.10059 -1.64459,0.58524 z m -10.79586,1.14105 c 0.84156,-0.58945 0.7196,-1.30867 -0.60279,-3.55459 l -1.16705,-1.98209 0.69367,-0.72404 c 0.98777,-1.03101 1.16407,-3.20781 0.34394,-4.24675 -1.43395,-1.81653 -5.60717,-2.64442 -6.34841,-1.2594 -0.14077,0.26303 -0.38084,2.88676 -0.53349,5.8305 -0.30165,5.81702 -0.25564,6.08367 1.04981,6.08367 1.02424,0 1.51964,-0.69897 1.73461,-2.4474 0.10288,-0.83674 0.29069,-1.52135 0.41734,-1.52135 0.12666,0 0.59265,0.71783 1.03554,1.59519 1.29929,2.57388 2.11385,3.11089 3.37683,2.22626 z m -7.01659,-0.2918 c -0.48533,-0.19606 -0.15313,-10.30504 0.36596,-11.13642 0.47972,-0.76832 1.68696,-0.78418 3.65458,-0.048 1.77147,0.6628 2.26117,1.29752 2.26117,2.93079 0,1.0366 -0.13585,1.37955 -0.81588,2.05957 l -0.81588,0.81588 1.21276,2.10256 c 1.39759,2.42301 1.50875,3.10118 0.54786,3.34235 -0.90144,0.22624 -1.32701,-0.18685 -2.41194,-2.34124 -0.7613,-1.51173 -1.01385,-1.80403 -1.49904,-1.73502 -0.51186,0.0728 -0.60341,0.29135 -0.74564,1.7798 -0.18677,1.95466 -0.72888,2.64382 -1.75395,2.22973 z m 3.37697,-6.8721 c 1.08154,-0.71573 1.24122,-1.10252 0.79747,-1.93166 -0.32334,-0.60416 -1.87469,-0.94986 -2.17062,-0.48369 -0.31013,0.48854 -0.26778,3.11196 0.0502,3.11196 0.14864,0 0.74396,-0.31347 1.32292,-0.69661 z m -1.06401,-1.15547 c 0,-0.73723 0.11385,-1.05833 0.37524,-1.05833 1.26575,0 1.63161,0.99918 0.62422,1.70479 -0.86683,0.60715 -0.99946,0.52137 -0.99946,-0.64646 z m 43.38787,8.20412 c 0.74206,-0.39714 0.99055,-1.54118 1.47941,-6.81126 0.36039,-3.88505 0.3828,-4.90289 0.11504,-5.22552 -0.85182,-1.02639 -2.26784,-0.0222 -2.48601,1.76307 -0.80203,6.56259 -1.02242,9.74142 -0.70216,10.12731 0.39205,0.47239 0.89779,0.51885 1.59372,0.1464 z m -1.22685,-2.31714 c 0.42142,-5.0623 0.92456,-8.82545 1.22901,-9.1923 0.18206,-0.21937 0.55456,-0.39885 0.82778,-0.39885 0.62858,0 0.63648,0.6059 0.0813,6.2369 -0.43586,4.42042 -0.75393,5.40477 -1.74647,5.40477 -0.53963,0 -0.55541,-0.0826 -0.39158,-2.05052 z m 4.65227,2.11667 c 0.47979,-0.38988 0.62719,-0.96462 0.93297,-3.63802 0.88069,-7.69976 0.83695,-8.59896 -0.41824,-8.59896 -0.87198,0 -1.50192,0.92164 -1.65793,2.42564 -0.0805,0.77595 -0.34878,3.21954 -0.59619,5.4302 -0.36908,3.29768 -0.3884,4.09343 -0.1076,4.43177 0.4494,0.5415 1.14162,0.52252 1.84699,-0.0506 z m -1.56743,-0.92605 c 10e-4,-0.47294 0.17976,-2.28412 0.39688,-4.02483 0.21712,-1.74072 0.39652,-3.64572 0.39866,-4.23334 0.005,-1.37126 0.51233,-2.36854 1.25949,-2.47585 0.53083,-0.0762 0.58861,0.0278 0.58783,1.05833 -5.3e-4,0.62859 -0.18553,2.98835 -0.41124,5.24392 -0.42663,4.2637 -0.75895,5.29167 -1.71066,5.29167 -0.41417,0 -0.52263,-0.17902 -0.52096,-0.8599 z m -4.79252,0.62323 c 0.54596,-0.54596 1.02745,-2.42404 1.26579,-4.93731 0.32514,-3.42853 -1.56542,-4.71301 -4.54517,-3.08807 -1.41015,0.769 -1.86774,1.76947 -1.10054,2.40619 0.32396,0.26887 0.26618,0.4318 -0.3835,1.08148 -1.13245,1.13246 -1.06,2.34381 0.20671,3.45599 1.78707,1.56908 3.6315,2.00692 4.55671,1.08172 z m -3.0148,-0.46755 c -2.18226,-1.15046 -2.63737,-2.66803 -1.17032,-3.90247 0.44772,-0.37674 1.09482,-0.68498 1.43798,-0.68498 0.34317,0 0.93413,-0.11793 1.31327,-0.26208 0.58856,-0.22377 0.64775,-0.33976 0.40493,-0.79347 -0.26797,-0.50071 -0.3392,-0.50849 -1.23358,-0.13479 -1.42431,0.59511 -1.9429,0.52096 -1.9429,-0.2778 0,-0.53695 0.22917,-0.77842 1.12448,-1.18481 2.49049,-1.13048 3.90605,-0.32239 3.89869,2.22561 -0.004,1.52926 -0.65891,4.58099 -1.09521,5.1067 -0.38836,0.46795 -1.76291,0.42179 -2.73734,-0.0919 z m 1.71979,-1.91997 c 0,-0.13362 0.0723,-0.43128 0.1606,-0.66146 0.12785,-0.33317 -0.0308,-0.41852 -0.77813,-0.41852 -1.05926,0 -1.43448,0.36635 -0.96035,0.93763 0.35004,0.42178 1.57788,0.53254 1.57788,0.14235 z m -1.05312,-0.28301 c -0.32846,-0.203 -0.31635,-0.26654 0.0798,-0.41854 0.55205,-0.21184 0.91252,0.0528 0.55664,0.40872 -0.15029,0.15029 -0.40282,0.15418 -0.6364,0.01 z m -0.005,-3.01762 c 0,-0.25099 0.792,-0.37748 0.93318,-0.14904 0.086,0.13916 -0.0888,0.25303 -0.3884,0.25303 -0.29963,0 -0.54478,-0.0468 -0.54478,-0.10399 z m -27.43564,5.42179 c 0.96958,-0.49432 0.99133,-0.49432 1.25588,0 0.33519,0.62632 1.48923,0.66132 2.14799,0.0652 0.27042,-0.24473 0.48371,-0.7991 0.48352,-1.25677 -1.9e-4,-0.45039 0.14003,-1.82338 0.31158,-3.05109 0.26934,-1.92739 0.25775,-2.26637 -0.0848,-2.48247 -0.33924,-0.21399 -0.31018,-0.33688 0.20043,-0.84749 1.1839,-1.18389 -0.19893,-2.79996 -1.60662,-1.87761 -0.70454,0.46164 -0.94907,1.81353 -0.39048,2.15875 0.18927,0.11698 0.1561,0.31762 -0.101,0.61093 -0.21054,0.24022 -0.47177,0.72772 -0.5805,1.08333 -0.19469,0.6368 -0.20514,0.63205 -0.6906,-0.31422 -0.65244,-1.27173 -1.44356,-1.78778 -2.7389,-1.78657 -1.40062,10e-4 -2.63524,0.78408 -3.30389,2.09475 -1.08061,2.11816 -0.32751,4.69002 1.63403,5.5803 1.43241,0.65012 2.22305,0.65538 3.4634,0.023 z m -3.44162,-0.54459 c -1.62788,-0.99258 -2.1618,-3.29618 -1.14896,-4.95728 1.3722,-2.25047 4.10066,-2.34562 5.13384,-0.17902 0.83023,1.741 0.57429,2.1945 -1.6687,2.95692 -0.7565,0.25714 -1.337,0.5824 -1.29,0.72279 0.047,0.14039 0.71054,0.2244 1.47452,0.1867 1.30086,-0.0642 1.38906,-0.0291 1.38906,0.55284 0,1.21343 -2.36166,1.64879 -3.88976,0.71705 z m 2.42322,-4.00194 c 0.1601,-0.15545 0.0846,-0.41456 -0.20537,-0.7045 -0.41776,-0.41776 -0.52266,-0.42267 -1.17742,-0.0552 -0.39534,0.2219 -0.76111,0.62316 -0.81283,0.8917 -0.083,0.43096 0.0255,0.46629 0.92417,0.30105 0.56001,-0.10296 1.13216,-0.29786 1.27145,-0.43309 z m -1.57617,-0.24211 c 0.0899,-0.14552 0.40165,-0.26458 0.69269,-0.26458 0.29104,0 0.45558,0.11906 0.36565,0.26458 -0.0899,0.14552 -0.40165,0.26459 -0.69269,0.26459 -0.29104,0 -0.45558,-0.11907 -0.36565,-0.26459 z m 4.10105,4.00466 c 0,-1.27498 0.55163,-4.87517 0.82535,-5.38662 0.29122,-0.54416 1.10706,-0.62052 1.4892,-0.13939 0.24855,0.31292 0.18224,1.1129 -0.41116,4.96094 -0.1704,1.10503 -0.24542,1.19658 -1.0435,1.27353 -0.79695,0.0768 -0.85989,0.025 -0.85989,-0.70846 z m -1.32292,-1.51316 c -0.3638,-0.20186 -0.49224,-0.36878 -0.28542,-0.37093 0.20683,-0.002 0.59378,-0.20095 0.8599,-0.44178 0.45903,-0.41542 0.48385,-0.39507 0.48385,0.39687 0,0.9185 -0.0892,0.95357 -1.05833,0.41584 z m 2.55764,-5.31372 c -0.39325,-0.39325 -0.16005,-1.38064 0.36547,-1.54743 0.59379,-0.18846 1.31022,0.26039 1.31022,0.82087 0,0.57804 -1.27248,1.12977 -1.67569,0.72656 z m -14.21851,-7.92908 c 0.36455,-0.46345 0.54837,-1.08429 0.54837,-1.85209 v -1.15494 h 1.30791 c 1.05163,0 1.38863,-0.11523 1.7198,-0.58804 0.40403,-0.57684 0.41187,-0.57759 0.41187,-0.0395 0,1.93383 1.45278,3.27335 3.5501,3.27335 1.538,0 2.66723,-0.56346 3.33978,-1.66649 l 0.51648,-0.84705 9.8e-4,1.33615 c 0.001,1.51375 0.31712,1.97114 1.36182,1.97114 1.0208,0 1.54959,-0.87574 1.54959,-2.56631 0,-1.51357 0.37717,-1.96189 2.05545,-2.44321 l 0.79745,-0.22871 -0.13343,0.99478 c -0.17243,1.28559 0.5446,2.82114 1.62498,3.47995 1.00761,0.61444 3.29998,0.66406 4.39994,0.0952 0.59361,-0.30697 0.78061,-0.58845 0.78061,-1.17501 0,-0.99237 -0.34464,-1.18986 -2.08566,-1.19513 -1.06465,-0.003 -1.49848,-0.1212 -1.71844,-0.46733 -0.48797,-0.7679 0.11038,-1.37629 1.44932,-1.47364 1.99408,-0.14497 2.83141,-1.66652 1.42444,-2.58841 -0.87598,-0.57396 -3.06569,-0.3801 -4.06679,0.36005 l -0.72985,0.5396 -0.33533,-0.53696 c -0.29128,-0.4664 -0.5235,-0.51753 -1.76759,-0.38912 -1.21688,0.12559 -1.47188,0.0738 -1.69569,-0.3444 -0.34731,-0.64896 -1.17288,-0.89124 -1.83302,-0.53795 -0.37643,0.20146 -0.58205,0.67131 -0.70744,1.61649 l -0.17675,1.33247 -0.45707,-1.00652 c -0.79386,-1.7482 -2.985,-2.45493 -4.76209,-1.53595 -0.80432,0.41593 -2.1172,1.94922 -2.1172,2.47264 0,0.4313 -0.28461,0.37952 -0.64838,-0.11797 -0.17361,-0.23742 -0.85537,-0.48523 -1.55053,-0.56358 l -1.24068,-0.13984 v -1.15622 -1.15622 h 1.46371 c 0.80504,0 1.8766,-0.17251 2.38125,-0.38337 0.7583,-0.31684 0.91754,-0.52132 0.91754,-1.17819 0,-0.69308 -0.127,-0.83008 -0.99218,-1.07036 -0.54571,-0.15154 -1.96127,-0.27621 -3.14569,-0.27702 -3.41816,-0.002 -3.36598,-0.09 -3.56868,5.99437 -0.0951,2.85347 -0.0628,5.18231 0.0754,5.44739 0.36009,0.69053 1.42366,0.5694 2.05571,-0.23412 z m -1.54245,0.0668 c -0.47071,-0.56718 -0.0846,-9.85644 0.43108,-10.37216 0.26966,-0.26966 1.06748,-0.37462 2.84762,-0.37462 2.81488,0 3.31004,0.12159 3.31004,0.81275 0,0.7281 -0.81826,1.03934 -2.73243,1.03934 -1.92832,0 -2.03007,0.1003 -2.03007,2.00097 0,1.2463 0.0997,1.32262 1.95768,1.49835 0.86189,0.0815 1.38534,0.70827 1.13544,1.35951 -0.12585,0.32794 -0.51785,0.43283 -1.61762,0.43283 -1.59098,0 -1.57307,-0.0247 -1.80251,2.48353 -0.0896,0.97933 -1.03171,1.68282 -1.49923,1.1195 z m 13.54214,-3.43671 c 0.0861,-1.82211 0.29126,-3.56467 0.45593,-3.87235 0.43927,-0.82078 1.42987,-0.60655 1.53793,0.3326 0.0986,0.85718 -0.002,0.8321 1.24446,0.31148 1.28902,-0.53859 2.24369,-0.31676 2.24369,0.52135 0,0.46262 -0.22271,0.70684 -0.85989,0.94292 -2.75875,1.02213 -2.77466,1.04173 -2.90743,3.58206 -0.0677,1.29583 -0.0876,1.32468 -0.97018,1.4089 l -0.90104,0.086 z m 7.44395,2.9116 c -2.51324,-1.13865 -2.65946,-4.49435 -0.26044,-5.97703 0.7036,-0.43484 1.25079,-0.55 2.32152,-0.48856 1.36235,0.0782 1.40094,0.10225 1.40094,0.87413 0,0.74879 -0.0703,0.80183 -1.24043,0.93639 -2.08362,0.23961 -2.93199,1.50578 -1.78045,2.65731 0.4646,0.46461 0.74753,0.52397 1.80451,0.37859 0.98322,-0.13522 1.3304,-0.0798 1.61004,0.25719 0.91373,1.10097 -2.08994,2.16198 -3.85569,1.36198 z m -13.23893,-0.54768 c -0.45427,-0.19771 -1.01982,-0.63627 -1.25677,-0.97456 -0.88833,-1.26827 -0.31404,-3.89518 1.09363,-5.00246 0.81924,-0.64441 2.85986,-0.70439 3.70986,-0.10903 2.00482,1.40423 1.71993,4.56332 -0.53554,5.93849 -1.00043,0.60997 -1.85274,0.65174 -3.01118,0.14756 z m 2.66303,-2.05994 c 0.79268,-1.1317 0.23005,-2.85155 -0.93284,-2.85155 -1.09508,0 -2.03051,2.33978 -1.2482,3.12209 0.52627,0.52627 1.72728,0.37729 2.18104,-0.27054 z m -1.63864,0.13915 c -0.4349,-0.16355 -0.42398,-1.43911 0.0175,-2.04285 0.57478,-0.78606 1.37157,-0.4311 1.37157,0.61101 0,0.92508 -0.73151,1.67911 -1.38906,1.43184 z m 22.63785,2.66791 c 0.78293,-0.51241 0.70081,-1.68409 -0.14751,-2.10462 l -0.59456,-0.29474 0.6646,-0.30281 c 1.08607,-0.49484 1.35677,-1.43298 0.78156,-2.70855 -0.66389,-1.47226 -1.53058,-2.09997 -2.89944,-2.09997 -2.94204,0 -4.72607,3.31113 -3.29521,6.11584 0.96876,1.89892 3.67131,2.58549 5.49056,1.39485 z m -3.94175,-0.44103 c -1.13625,-0.76571 -1.55597,-1.60073 -1.55869,-3.10091 -0.006,-3.41634 4.09759,-4.96482 5.56013,-2.098 0.9379,1.83843 0.74473,2.23221 -1.49876,3.05535 -0.74632,0.27382 -1.34163,0.61692 -1.32292,0.76244 0.0191,0.14847 0.64362,0.2345 1.4231,0.19603 1.30085,-0.0642 1.38906,-0.0291 1.38906,0.55284 0,1.26611 -2.47068,1.65742 -3.99192,0.63225 z m 1.84779,-3.66015 c 0.87885,-0.30637 0.95554,-0.67011 0.23687,-1.12344 -0.50714,-0.31989 -1.79691,0.41749 -1.79691,1.02732 0,0.46698 0.42168,0.49296 1.56004,0.0961 z m -0.89858,-0.49909 c 0.0899,-0.14552 0.42439,-0.26276 0.74322,-0.26053 0.47128,0.003 0.50548,0.052 0.18282,0.26053 -0.52126,0.33686 -1.13423,0.33686 -0.92604,0 z m 33.12813,25.92916 c -0.49823,-0.2061 -0.53946,-1.05833 -0.0512,-1.05833 0.23325,0 0.36265,0.0994 0.28756,0.22091 -0.0751,0.1215 0.4239,0.13459 1.10886,0.0291 1.35726,-0.20906 1.64227,-0.13937 1.64227,0.40155 0,0.36291 -2.32744,0.67983 -2.98749,0.40679 z m -4.68137,-0.24994 c 0.002,-0.0808 0.12129,-0.32553 0.26458,-0.54381 0.21603,-0.32907 0.30008,-0.33555 0.49204,-0.0379 0.14012,0.21727 0.29545,0.25553 0.39347,0.0969 0.0891,-0.14412 0.55044,-0.22942 1.02526,-0.18954 0.47481,0.0399 1.07166,0.0856 1.32633,0.1015 0.25466,0.016 0.46302,0.20928 0.46302,0.42962 0,0.32707 -0.36432,0.39047 -1.98438,0.34537 -1.0914,-0.0304 -1.98255,-0.12136 -1.98032,-0.20218 z"
                    id="path120"/>
            <path
                    style="fill:#b0ccd1;stroke-width:0.264583"
                    d="m 424.88297,401.85162 c -0.10391,-0.10391 -0.18893,-0.59299 -0.18893,-1.08684 0,-0.87581 0.0244,-0.8959 0.99218,-0.8158 0.9419,0.0779 0.99219,0.12905 0.99219,1.00816 0,0.8377 -0.0766,0.93354 -0.80326,1.00472 -0.44179,0.0433 -0.88827,-0.006 -0.99218,-0.11024 z m 1.39857,-0.9101 c 0,-0.13693 -0.11907,-0.24897 -0.26459,-0.24897 -0.14552,0 -0.26458,0.18562 -0.26458,0.41249 0,0.22687 0.11906,0.33891 0.26458,0.24897 0.14552,-0.0899 0.26459,-0.27556 0.26459,-0.41249 z m 5.82083,0.57327 c 0,-0.18902 -0.13796,-0.24142 -0.33073,-0.1256 -0.21914,0.13165 -0.20651,0.0456 0.0374,-0.25503 0.32683,-0.40278 0.31198,-0.43382 -0.13229,-0.27643 -0.37521,0.13292 -0.42875,0.0992 -0.21396,-0.13491 0.36079,-0.39317 1.13482,-0.11824 1.06209,0.37724 -0.0716,0.48776 -0.42253,0.83222 -0.42253,0.41473 z m -4.29948,-0.23332 c -0.48412,-0.10304 -0.6586,-0.8535 -0.19844,-0.8535 0.14552,0 0.26459,0.13364 0.26459,0.29698 0,0.20519 0.12267,0.19517 0.39687,-0.0324 0.21828,-0.18115 0.39688,-0.22125 0.39688,-0.0891 0,0.13216 0.23812,0.24028 0.52916,0.24028 0.29105,0 0.52917,-0.11736 0.52917,-0.2608 0,-0.14994 0.12617,-0.13463 0.29683,0.036 0.16325,0.16326 0.46091,0.23386 0.66145,0.1569 0.20578,-0.079 0.36464,0.0261 0.36464,0.24116 0,0.28449 -0.35213,0.3788 -1.38907,0.37204 -0.76398,-0.005 -1.59742,-0.0534 -1.85208,-0.10759 z m 4.9315,-0.10739 c -0.15468,-0.25027 0.26604,-0.44305 1.18838,-0.54453 0.39368,-0.0433 0.65375,0.0795 0.69374,0.32759 0.0459,0.28479 -0.19155,0.40263 -0.84088,0.41725 -0.49767,0.0112 -0.96623,-0.0789 -1.04124,-0.20031 z m -30.07599,-4.25184 c -0.40387,-0.30291 -0.4089,-0.50876 -0.0598,-2.44739 0.20964,-1.16417 0.38531,-2.45307 0.39038,-2.86422 0.008,-0.6527 -0.0831,-0.74145 -0.71837,-0.69956 -1.23737,0.0816 -1.38906,0.012 -1.38906,-0.63716 0,-0.77922 0.42584,-1.14961 1.45521,-1.26576 0.72128,-0.0814 0.8179,-0.21033 1.05833,-1.41247 0.33798,-1.68991 0.54046,-1.98438 1.36451,-1.98438 0.6652,0 0.67001,0.0156 0.48757,1.5875 l -0.18424,1.5875 h 1.09261 c 1.93409,0 1.72942,1.37308 -0.2519,1.68991 -0.57934,0.0926 -1.05566,0.31585 -1.05849,0.49603 -0.0196,1.24983 -0.79846,5.57693 -1.06066,5.89286 -0.3929,0.47342 -0.55979,0.48188 -1.12608,0.0571 z m -27.14339,-0.55499 c -0.16275,-0.1961 -0.70154,-1.11883 -1.1973,-2.05052 -0.71574,-1.3451 -1.02928,-1.69397 -1.52242,-1.69397 -0.56759,0 -0.63713,0.1459 -0.80798,1.69506 -0.21033,1.90716 -0.40757,2.22447 -1.3039,2.09765 -0.703,-0.0995 -0.66127,0.41892 -0.55023,-6.83542 0.0506,-3.30752 0.11336,-3.76083 0.58586,-4.23333 0.63806,-0.63806 1.30883,-0.66197 3.15866,-0.11263 1.98601,0.58978 2.66217,1.34657 2.66217,2.97963 0,1.11213 -0.12185,1.42268 -0.82981,2.11484 l -0.82981,0.81129 1.22669,2.16513 c 0.67467,1.19083 1.22668,2.30434 1.22668,2.47448 0,0.83529 -1.27201,1.24642 -1.81861,0.58779 z m -1.8803,-6.65822 c 1.66844,-1.05324 1.33543,-2.51418 -0.59327,-2.60271 l -0.86719,-0.0398 -0.0788,1.65365 c -0.0498,1.04503 0.0252,1.65364 0.20369,1.65364 0.15536,0 0.75635,-0.29915 1.33554,-0.66477 z m 41.09693,6.34313 c -0.13439,-0.35022 0.48686,-7.50787 0.84662,-9.75418 0.15518,-0.96895 0.57347,-1.48043 1.21067,-1.48043 0.6238,0 0.62814,0.34915 0.0757,6.0816 -0.42132,4.37152 -0.75857,5.56007 -1.57766,5.56007 -0.2195,0 -0.46938,-0.18318 -0.55529,-0.40706 z m 3.17269,-0.006 c -0.0872,-0.2272 -0.0778,-1.0904 0.0208,-1.91823 0.0986,-0.82784 0.34788,-3.09499 0.5539,-5.03812 0.38285,-3.61102 0.61267,-4.27225 1.48489,-4.27225 0.62858,0 0.63648,0.6059 0.0813,6.2369 -0.4161,4.22016 -0.76312,5.40476 -1.58325,5.40476 -0.2195,0 -0.47041,-0.18588 -0.5576,-0.41308 z M 395.603,395.72931 c -0.3978,-0.32212 -0.51678,-0.61622 -0.38656,-0.95556 0.15178,-0.39553 0.38291,-0.4641 1.19647,-0.35498 1.40585,0.18856 1.95397,-0.44516 1.02046,-1.17985 -1.81671,-1.42981 -2.10808,-1.77957 -2.10808,-2.53054 0,-1.75536 2.80704,-2.84182 4.29948,-1.66409 0.79882,0.63037 0.91476,1.10939 0.37659,1.55603 -0.25588,0.21236 -0.56797,0.20941 -1.1516,-0.0109 -0.44033,-0.16621 -1.02535,-0.21595 -1.30005,-0.11054 -0.43912,0.1685 -0.3613,0.3064 0.64421,1.14164 0.62901,0.52249 1.25213,1.23532 1.38473,1.58407 0.30132,0.79253 -0.27616,2.29612 -1.03857,2.70415 -0.80937,0.43316 -2.29244,0.34255 -2.93708,-0.17946 z m 14.60639,0.0714 c -3.0198,-1.31259 -2.84258,-4.0144 0.30185,-4.60184 1.52992,-0.28582 1.96783,-0.63753 1.49826,-1.20332 -0.29459,-0.35496 -0.43888,-0.35624 -1.26464,-0.0112 -1.38143,0.57719 -1.9805,0.51381 -1.87808,-0.1987 0.10583,-0.7362 1.88558,-1.78275 3.04191,-1.78874 1.18546,-0.006 1.93885,1.0116 1.93284,2.61102 -0.006,1.51554 -0.66919,4.72649 -1.07858,5.21977 -0.38583,0.46489 -1.44777,0.45367 -2.55356,-0.027 z m 1.78465,-2.69937 c 0,-0.3817 -1.98856,-0.50307 -2.21589,-0.13523 -0.20474,0.33128 0.18596,0.79745 0.90044,1.07437 0.68456,0.26532 1.31545,-0.18509 1.31545,-0.93914 z m -32.20018,2.31024 c -2.93987,-1.79254 -1.73413,-6.6253 1.65297,-6.6253 0.93862,0 1.24816,0.13874 1.81647,0.81415 1.50792,1.79205 1.16332,2.86049 -1.15581,3.58364 -0.87664,0.27335 -1.55388,0.61607 -1.50499,0.76159 0.0489,0.14552 0.73239,0.26458 1.51887,0.26458 1.24416,0 1.44013,0.0711 1.50822,0.54732 0.16253,1.13667 -2.3434,1.56395 -3.83573,0.65402 z m 2.41011,-3.99284 c 0.30893,-0.29431 -0.29952,-1.04496 -0.84701,-1.04496 -0.57315,0 -1.3775,0.78398 -1.3775,1.3426 0,0.41068 0.11934,0.43462 0.99218,0.19899 0.54571,-0.14732 1.10025,-0.3708 1.23233,-0.49663 z m 2.63624,4.12112 c -0.236,-0.615 0.42164,-4.96943 0.85015,-5.6291 0.74968,-1.15407 1.85284,-0.47224 1.45881,0.90166 -0.12529,0.43687 -0.31572,1.67776 -0.42317,2.75753 -0.10745,1.07976 -0.32992,2.05068 -0.49439,2.1576 -0.49945,0.32467 -1.23275,0.22575 -1.3914,-0.18769 z m 3.2798,0.0734 c -0.22149,-0.59241 0.44198,-6.25647 0.77135,-6.58507 0.62401,-0.62253 1.14226,-0.0592 1.14226,1.2417 v 1.23566 l 1.14297,-1.22735 c 1.34178,-1.44085 2.40965,-1.66043 2.82044,-0.57995 0.29617,0.77899 0.041,5.16942 -0.3276,5.63644 -0.14356,0.1819 -0.56174,0.33073 -0.9293,0.33073 h -0.66827 l 0.16322,-2.11667 c 0.0898,-1.16416 0.0641,-2.11666 -0.0571,-2.11666 -0.25925,0 -1.28513,1.49415 -2.17994,3.175 -0.63496,1.19273 -1.61249,1.71645 -1.87804,1.00617 z m -2.22404,-7.48846 c -0.35659,-0.92926 0.63409,-1.79269 1.3629,-1.18783 0.49992,0.4149 0.49542,0.65124 -0.0223,1.16893 -0.52538,0.52538 -1.14293,0.53408 -1.34063,0.0189 z m -15.81527,-7.76781 c -0.0772,-0.12494 -0.0651,-2.39773 0.0268,-5.05063 0.12562,-3.62315 0.26014,-4.91635 0.54056,-5.19678 0.26813,-0.26812 1.07021,-0.37333 2.84633,-0.37333 2.81488,0 3.31004,0.12159 3.31004,0.81275 0,0.73027 -0.81946,1.03934 -2.75569,1.03934 -1.5965,0 -1.74435,0.0486 -1.88789,0.62053 -0.0857,0.34129 -0.1177,1.08544 -0.0712,1.65365 0.0835,1.02044 0.0999,1.03488 1.34013,1.17743 1.4636,0.16823 1.90849,0.51173 1.6633,1.28425 -0.15013,0.47302 -0.38627,0.5558 -1.58548,0.5558 -1.58952,0 -1.73027,0.15888 -1.73027,1.9531 0,0.61384 -0.14287,1.25895 -0.3175,1.43357 -0.36825,0.36826 -1.17476,0.42107 -1.37917,0.0903 z m 13.70058,-3.37272 c 0.17831,-3.3353 0.42078,-4.3376 1.04936,-4.3376 0.49153,0 0.96965,0.5619 0.96965,1.13956 0,0.37582 0.11814,0.45655 0.46302,0.3164 1.12773,-0.45827 2.07476,-0.64819 2.5229,-0.50595 0.68452,0.21726 0.47558,1.23542 -0.32087,1.56353 -2.61132,1.07579 -2.7932,1.24366 -2.86648,2.64584 -0.11797,2.25721 -0.23697,2.51354 -1.16685,2.51354 h -0.82903 z m 7.38203,2.94305 c -0.47007,-0.20435 -1.09471,-0.76524 -1.38807,-1.24642 -1.4317,-2.34825 0.39372,-5.2475 3.29696,-5.23643 1.35078,0.005 1.79315,0.29049 1.68092,1.08421 -0.0765,0.54097 -0.26883,0.6505 -1.34139,0.76382 -3.29636,0.34829 -3.06945,3.33584 0.23732,3.12448 1.15778,-0.074 1.28747,-0.0247 1.36463,0.51906 0.0672,0.47335 -0.11344,0.68385 -0.85139,0.99218 -1.15197,0.48132 -1.89023,0.4811 -2.99898,-7.9e-4 z m 6.62222,-0.12619 c -1.09334,-0.66665 -1.66649,-1.79945 -1.66649,-3.29372 0,-1.02158 0.14591,-1.34601 1.01736,-2.2621 0.89332,-0.93907 1.16192,-1.06947 2.20284,-1.06947 0.89233,0 1.31955,0.14721 1.7277,0.59531 1.84071,2.02094 1.26436,3.3678 -1.72183,4.02368 -1.34969,0.29644 -0.86456,0.80497 0.76792,0.80497 1.24643,0 1.42997,0.0669 1.42997,0.52135 0,1.14109 -2.31433,1.55992 -3.75747,0.67998 z m 2.40038,-3.97174 c 0.19171,-0.19172 0.13932,-0.41283 -0.17145,-0.7236 -0.62053,-0.62053 -1.87531,-0.18558 -2.00063,0.69348 -0.0839,0.58862 -0.0267,0.61821 0.90321,0.4673 0.54603,-0.0886 1.11702,-0.28534 1.26887,-0.43718 z m -22.31944,3.51067 c -1.61024,-0.83044 -2.04249,-2.65484 -1.07726,-4.54685 0.66814,-1.30966 1.57732,-1.88196 2.98977,-1.88196 1.3715,0 2.24484,0.55608 2.74197,1.74588 0.50674,1.2128 0.46085,2.20115 -0.1486,3.20069 -1.02864,1.68701 -2.90926,2.30565 -4.50588,1.48224 z m 2.68746,-1.8396 c 1.1142,-1.00834 0.2027,-3.25413 -1.17991,-2.90712 -1.03048,0.25864 -1.6569,2.29974 -0.92915,3.0275 0.45399,0.45398 1.54309,0.39182 2.10906,-0.12038 z m 27.20677,-5.7621 c -4.20144,-1.17093 -7.36181,-4.32541 -8.8268,-8.81036 -0.94151,-2.88234 -1.22736,-4.7576 -1.22736,-8.05165 0,-3.48451 0.40531,-4.73922 1.7347,-5.37006 0.81944,-0.38885 0.97139,-0.38996 1.70144,-0.0124 0.45204,0.23376 1.14829,1.01685 1.59652,1.79566 1.02443,1.77993 1.32441,2.15403 2.02755,2.52853 0.73267,0.39022 8.11346,0.41856 8.83218,0.0339 0.80292,-0.42972 0.60923,-1.18622 -0.67352,-2.63053 -1.90277,-2.14241 -2.11667,-2.70376 -2.1195,-5.56225 -0.002,-1.90065 0.11453,-2.74868 0.47746,-3.47789 0.80232,-1.61204 2.23537,-3.06704 3.75122,-3.80868 1.29403,-0.63312 1.67634,-0.69487 3.78496,-0.61144 2.05952,0.0815 2.50311,0.19028 3.63785,0.89223 1.5635,0.96716 2.85405,2.59587 3.48672,4.4003 0.46575,1.32838 0.49369,1.35173 3.31398,2.76854 4.13339,2.07647 3.90167,2.832 -1.12448,3.66649 -2.70566,0.44921 -2.81091,0.49302 -4.0349,1.67934 -1.86447,1.8071 -1.72778,2.41532 0.90286,4.0175 2.27286,1.38426 3.39033,4.22993 2.85166,7.26184 -0.83127,4.67891 -4.10743,8.26729 -8.44962,9.2549 -2.26166,0.51441 -9.84231,0.53789 -11.64292,0.0361 z m 11.25535,-2.14603 c 3.47289,-0.89964 6.05818,-3.70906 6.75268,-7.3381 0.51693,-2.70115 -0.47973,-4.63153 -3.12495,-6.05254 -1.1332,-0.60875 -1.66323,-1.53109 -1.83472,-3.19272 l -0.14681,-1.42243 1.73739,-1.78947 c 1.67149,-1.7216 1.80445,-1.80058 3.50542,-2.08244 l 1.76803,-0.29297 -1.49941,-0.75819 c -1.51931,-0.76826 -1.71555,-1.03159 -2.24458,-3.01194 -0.34106,-1.27667 -1.83941,-2.91708 -3.18117,-3.48275 -1.20988,-0.51007 -3.32657,-0.51293 -4.52855,-0.006 -1.98881,0.83858 -3.48246,3.05436 -3.50889,5.20531 -0.0222,1.80427 0.51744,3.09772 1.95421,4.68425 1.52003,1.67846 1.77857,2.47065 1.27298,3.90042 -0.69646,1.9695 -1.21644,2.14704 -6.5418,2.23367 -4.17274,0.0679 -4.77788,0.0221 -5.60393,-0.42386 -0.93516,-0.50488 -2.10781,-1.87848 -2.99865,-3.51249 -0.44428,-0.81492 -0.50851,-0.848 -0.76316,-0.39295 -0.15294,0.27327 -0.27251,1.75875 -0.26571,3.30107 0.0327,7.43568 2.94485,12.58449 8.1161,14.34979 1.82612,0.62338 8.8495,0.67665 11.13552,0.0845 z m -7.94805,-3.1332 c -1.96299,-0.47737 -3.91977,-1.64827 -5.69687,-3.40891 -1.6641,-1.64869 -2.11959,-2.58469 -1.57632,-3.23928 0.57108,-0.68811 1.08665,-0.43595 2.69307,1.31718 2.12489,2.31894 4.27421,3.39571 6.76819,3.39074 1.90057,-0.004 3.66615,-0.56701 3.9296,-1.25354 0.29029,-0.75648 -0.15669,-1.68313 -1.09015,-2.26004 -1.07311,-0.66322 -1.25438,-1.65825 -0.38668,-2.12264 1.18102,-0.63206 3.39897,1.54427 3.62593,3.55789 0.23884,2.11896 -1.06963,3.51035 -3.84803,4.09186 -1.71977,0.35994 -2.70448,0.34361 -4.41874,-0.0733 z m 9.00151,-22.0227 c -0.51569,-0.51569 -0.4383,-1.12826 0.19276,-1.52567 0.53953,-0.33977 1.3391,0.0382 1.46842,0.69414 0.0811,0.41128 -0.59627,1.26052 -1.0054,1.26052 -0.12474,0 -0.41983,-0.19304 -0.65578,-0.42899 z"
                    id="path118"/>
            <path
                    style="fill:#92acb4;stroke-width:0.264583"
                    d="m 424.74342,400.89099 c 0.0728,-0.75464 0.17737,-0.85989 0.85461,-0.85989 0.42444,0 0.81459,0.12867 0.86702,0.28595 0.0596,0.17888 -0.20456,0.24193 -0.70556,0.1684 -0.68628,-0.10072 -0.80087,-0.0335 -0.80087,0.46996 0,0.41353 0.11753,0.54241 0.39688,0.43521 0.21828,-0.0838 0.39687,-0.037 0.39687,0.10399 0,0.14095 -0.24567,0.25628 -0.54593,0.25628 -0.45654,0 -0.53236,-0.1408 -0.46302,-0.8599 z m 1.40583,0.59531 c 0.0899,-0.14552 0.21602,-0.26458 0.28019,-0.26458 0.0642,0 0.11668,0.11906 0.11668,0.26458 0,0.14552 -0.12609,0.26459 -0.2802,0.26459 -0.15411,0 -0.20661,-0.11907 -0.11667,-0.26459 z m 5.97401,-0.41892 c 0.0127,-0.30823 0.0754,-0.37092 0.15985,-0.15985 0.0764,0.19099 0.067,0.4192 -0.0209,0.50712 -0.0879,0.0879 -0.15045,-0.0684 -0.13896,-0.34727 z m -29.55301,-5.46806 c 0.0962,-0.76398 0.24831,-2.12503 0.338,-3.02455 l 0.16309,-1.6355 -1.02876,-0.0843 c -0.89847,-0.0736 -1.02875,-0.16807 -1.02875,-0.74576 0,-0.56186 0.16799,-0.69871 1.11561,-0.90886 1.07317,-0.23799 1.12227,-0.29335 1.29059,-1.45521 0.23781,-1.6415 0.53851,-2.13385 1.30322,-2.13385 0.63416,0 0.64452,0.0341 0.48216,1.5875 l -0.16592,1.5875 h 1.10433 c 0.74168,0 1.15476,0.13144 1.25791,0.40025 0.24165,0.62973 -0.41566,1.18725 -1.39976,1.18725 -1.06914,0 -1.25779,0.36301 -1.51248,2.91042 -0.0946,0.94589 -0.2958,2.16628 -0.44718,2.71198 -0.22762,0.82058 -0.39385,0.99219 -0.9611,0.99219 -0.67323,0 -0.68265,-0.0256 -0.51096,-1.38907 z m -26.76733,0.94614 c -0.18704,-0.0751 -0.74254,-0.93577 -1.23445,-1.91257 -1.53016,-3.03848 -2.1905,-3.09755 -2.65881,-0.23782 -0.27616,1.68642 -0.75715,2.2871 -1.57888,1.97178 -0.40155,-0.15409 -0.44074,-0.43755 -0.30759,-2.22492 0.0839,-1.12658 0.22776,-3.57461 0.31963,-5.44006 0.15861,-3.22082 0.19818,-3.40593 0.78516,-3.67337 0.67395,-0.30707 2.47057,0.0299 3.98617,0.74762 1.63928,0.7763 1.92883,2.94793 0.59553,4.46648 l -0.8302,0.94554 0.68103,1.24648 c 2.07796,3.80323 1.96218,3.47838 1.39181,3.90501 -0.545,0.40767 -0.61539,0.42028 -1.1494,0.20583 z m -1.84273,-7.02094 c 0.92561,-0.64837 0.96185,-1.63086 0.0814,-2.20773 -0.35539,-0.23286 -0.92094,-0.38443 -1.25677,-0.33683 -0.56025,0.0794 -0.61709,0.23517 -0.68921,1.88846 l -0.0786,1.80192 0.60777,-0.31808 c 0.33427,-0.17494 0.93518,-0.54742 1.33537,-0.82774 z m 40.77539,6.5379 c -0.12777,-0.33296 0.12671,-3.09449 0.85616,-9.29091 0.16021,-1.36092 0.6663,-2.10033 1.27712,-1.86594 0.39838,0.15287 0.43178,0.4392 0.27512,2.3581 -0.37808,4.63092 -0.89771,8.4571 -1.19763,8.81848 -0.40808,0.49171 -1.01833,0.48177 -1.21077,-0.0197 z m 3.19237,0.0453 c -0.0824,-0.21486 0.0383,-2.03936 0.26832,-4.05445 0.23003,-2.01509 0.48502,-4.28895 0.56665,-5.05302 0.18583,-1.73957 1.18429,-2.87458 1.59264,-1.81045 0.21985,0.57294 -0.6925,9.72793 -1.04365,10.47247 -0.35801,0.75908 -1.16406,1.01852 -1.38396,0.44545 z m -22.02596,-0.19276 c -0.43493,-0.1744 -0.58922,-0.42022 -0.52917,-0.84312 0.0705,-0.49633 0.24926,-0.59695 1.06064,-0.59695 1.74969,0 1.81924,-0.50156 0.26832,-1.93487 -1.55011,-1.43255 -1.71503,-2.11627 -0.74459,-3.08671 0.86649,-0.86649 2.25484,-1.0942 3.31832,-0.54426 1.01992,0.52743 1.28412,1.10635 0.74906,1.64141 -0.35716,0.35716 -0.48719,0.35515 -1.21005,-0.0187 -0.75528,-0.39057 -1.63715,-0.34355 -1.63715,0.0873 0,0.10375 0.53578,0.67008 1.19063,1.25851 0.98631,0.88628 1.19062,1.23095 1.19062,2.00849 0,1.6899 -1.88862,2.73779 -3.65663,2.02885 z m 14.37226,-0.15261 c -1.17741,-0.62938 -2.24896,-1.71591 -2.24896,-2.2804 0,-1.18225 1.34195,-2.31436 2.74334,-2.31436 1.37909,0 1.92487,-0.63262 1.1212,-1.29961 -0.2828,-0.2347 -0.62616,-0.2031 -1.47249,0.13554 -2.02096,0.80862 -2.2196,-0.57642 -0.21327,-1.48708 1.69936,-0.77133 2.48874,-0.68669 3.13412,0.33605 0.459,0.72737 0.5193,1.13494 0.39127,2.64444 -0.0833,0.9815 -0.35894,2.41025 -0.61266,3.175 -0.41013,1.2362 -0.54936,1.39735 -1.25505,1.45259 -0.43657,0.0342 -1.15094,-0.1288 -1.5875,-0.36217 z m 1.55919,-1.83827 c 0.50706,-1.32138 -0.0549,-1.74093 -1.56347,-1.16736 -0.81305,0.30912 -0.75294,0.78674 0.15746,1.25124 0.85868,0.43812 1.21383,0.41693 1.40601,-0.0839 z m -31.85398,1.53447 c -1.67398,-0.9027 -2.2746,-2.92372 -1.41024,-4.74523 1.17121,-2.46814 4.2814,-2.55827 5.28631,-0.15318 0.66662,1.59545 0.43107,1.8178 -3.325,3.13876 -0.57053,0.20065 0.0187,0.64978 0.92442,0.70468 0.4254,0.0258 1.04194,-0.0451 1.37008,-0.15759 0.43945,-0.1506 0.64065,-0.0897 0.76378,0.23117 0.43508,1.13379 -2.06578,1.81378 -3.60935,0.98139 z m 1.93419,-3.81624 c 0.63481,-0.32581 0.46035,-1.11459 -0.2696,-1.21893 -0.88972,-0.12718 -1.66459,0.41068 -1.66459,1.15544 0,0.58271 0.0824,0.63748 0.7276,0.48326 0.40018,-0.0957 0.94315,-0.28456 1.20659,-0.41977 z m 2.97204,4.04171 c -0.0837,-0.13534 -0.0106,-1.39773 0.16243,-2.80532 0.33973,-2.76447 0.8052,-3.72929 1.6439,-3.40745 0.40736,0.15632 0.46288,0.37151 0.32843,1.27296 -0.089,0.59666 -0.23764,1.85875 -0.33034,2.80463 -0.0927,0.94589 -0.28587,1.86862 -0.42928,2.05052 -0.30529,0.38722 -1.15579,0.43958 -1.37514,0.0847 z m 3.31467,-1.0107 c 0.0419,-2.79982 0.39866,-5.38985 0.77432,-5.62202 0.60618,-0.37463 1.05894,0.22493 1.05894,1.40228 v 1.07327 l 1.18618,-1.23796 c 1.90113,-1.98414 2.79407,-1.61892 2.76296,1.13006 -0.0108,0.95316 -0.10008,2.2688 -0.19844,2.92364 -0.15709,1.04593 -0.25921,1.19063 -0.84028,1.19063 -0.65846,0 -0.66118,-0.0102 -0.6005,-2.24896 l 0.061,-2.24896 -0.76939,0.89307 c -0.42316,0.4912 -1.14219,1.59252 -1.59783,2.4474 -0.57446,1.0778 -0.98593,1.55432 -1.3421,1.55432 -0.43903,0 -0.51092,-0.18257 -0.49483,-1.25677 z m -2.40007,-6.89534 c 0,-0.28289 0.17708,-0.6613 0.3935,-0.84092 0.56913,-0.47233 1.24775,-0.1223 1.14641,0.59133 -0.11462,0.80716 -1.53991,1.03818 -1.53991,0.24959 z m -15.69602,-7.39216 c -0.0642,-0.10914 -0.0409,-2.38135 0.0519,-5.04937 0.19948,-5.73671 0.124,-5.60011 3.09396,-5.60011 2.60736,0 3.55438,0.21614 3.55438,0.81121 0,0.69073 -0.34716,0.82494 -2.6097,1.0089 l -2.02051,0.16427 -0.0779,1.61886 -0.0779,1.61885 1.35022,0.12974 c 1.58106,0.15192 2.10665,0.52787 1.68308,1.20389 -0.19164,0.30587 -0.75525,0.49925 -1.71384,0.58803 l -1.42831,0.1323 -0.13643,1.53356 c -0.1311,1.47357 -0.46602,2.02435 -1.23701,2.03426 -0.17332,0.002 -0.36769,-0.0853 -0.43195,-0.19439 z m 13.69508,-0.35753 c -0.18093,-0.29275 0.0487,-5.04863 0.30736,-6.36724 0.25295,-1.28925 1.43772,-1.21379 1.58276,0.1008 0.0367,0.33259 0.0766,0.63753 0.0888,0.67764 0.0121,0.0401 0.37332,-0.10871 0.80266,-0.33073 1.01065,-0.52262 2.36465,-0.52443 2.56458,-0.003 0.22266,0.58022 -0.32252,1.10731 -1.3434,1.29882 -0.48938,0.0918 -1.19951,0.41057 -1.57807,0.70834 -0.57716,0.45398 -0.6883,0.75473 -0.6883,1.86252 0,0.7266 -0.12326,1.5514 -0.2739,1.83287 -0.29772,0.5563 -1.17331,0.68825 -1.46246,0.22039 z m 14.08508,-0.26633 c -1.7422,-0.91922 -2.30064,-3.33227 -1.16214,-5.0217 1.47757,-2.19256 4.16844,-2.07968 5.12726,0.21509 0.55004,1.31643 0.0439,1.97627 -2.00601,2.61545 -0.88182,0.27495 -1.60433,0.57757 -1.60557,0.67247 -0.005,0.36506 1.46847,0.67607 2.0985,0.44301 1.48005,-0.5475 1.88038,0.64037 0.42128,1.25002 -1.19427,0.499 -1.64948,0.47138 -2.87332,-0.17434 z m 2.00492,-3.72153 c 0.56645,-0.29029 0.58646,-0.5806 0.0696,-1.00957 -0.55263,-0.45864 -1.70017,-0.1086 -1.9682,0.60038 -0.12213,0.32307 -0.16921,0.67713 -0.10462,0.7868 0.12755,0.21657 1.26058,0.003 2.00324,-0.37761 z m -9.21535,3.5158 c -3.1003,-1.89056 -0.55849,-6.70524 3.17056,-6.00567 1.64526,0.30865 1.1269,1.74203 -0.62998,1.74203 -1.26644,0 -2.12262,0.62985 -2.12262,1.5615 0,1.17207 0.78404,1.68091 2.42402,1.57316 1.2122,-0.0797 1.41287,-0.0235 1.50079,0.41973 0.0561,0.28286 -0.11149,0.6674 -0.37474,0.8599 -0.71411,0.52216 -3.00748,0.4351 -3.96803,-0.15065 z m -13.04667,-0.39953 c -1.85221,-1.0266 -1.73872,-3.88213 0.21978,-5.5301 1.3233,-1.11348 3.47001,-0.8783 4.35835,0.47747 1.04103,1.58882 0.62981,3.80117 -0.9104,4.8979 -0.85729,0.61044 -2.7049,0.68839 -3.66773,0.15473 z m 2.71332,-1.50206 c 1.27307,-1.00139 0.75289,-3.1558 -0.76196,-3.1558 -1.3568,0 -2.00955,2.48941 -0.86328,3.29229 0.7482,0.52406 0.78994,0.52056 1.62524,-0.13649 z m 30.85964,-5.78684 c -3.66433,-0.14904 -3.91523,-0.19538 -5.59198,-1.0328 -4.63074,-2.31274 -7.40279,-7.35282 -7.81553,-14.21002 -0.2277,-3.78312 0.0414,-5.57776 0.9764,-6.51282 1.45597,-1.45596 2.58898,-0.92393 4.4803,2.10384 0.48008,0.76856 1.08837,1.5127 1.35174,1.65365 0.71974,0.38519 8.79939,0.33138 9.19198,-0.0612 0.56225,-0.56225 0.34176,-1.3168 -0.72203,-2.47088 -1.83078,-1.98616 -2.26396,-3.09794 -2.26396,-5.81058 0,-1.95708 0.10531,-2.5789 0.59119,-3.49084 2.59575,-4.87184 8.96422,-5.82661 12.72921,-1.90837 0.90772,0.94466 2.15393,3.35375 2.15393,4.16383 0,0.10998 1.21705,0.79012 2.70455,1.51142 4.30006,2.08513 4.18724,2.68114 -0.67324,3.55682 -3.11621,0.56142 -3.13254,0.56823 -4.31175,1.79893 -1.47998,1.54459 -1.52141,2.53056 -0.14121,3.36059 1.60343,0.96429 2.89124,2.24965 3.45449,3.44791 1.00909,2.14675 0.59893,5.87194 -0.93537,8.49518 -0.91167,1.55872 -3.30084,3.7242 -4.93363,4.47172 -1.3516,0.61878 -4.38946,1.21678 -5.74718,1.13132 -0.3638,-0.0229 -2.38786,-0.11186 -4.49791,-0.19768 z m 9.56966,-2.86162 c 2.99533,-1.4758 4.85638,-4.19458 5.14218,-7.51216 0.20459,-2.37477 -0.51101,-3.71639 -2.6733,-5.01201 -1.87908,-1.12592 -2.23985,-1.72322 -2.24506,-3.717 -0.004,-1.4655 0.0247,-1.52249 1.53956,-3.07059 1.43179,-1.46325 1.67106,-1.60145 3.30729,-1.91018 0.97011,-0.18305 1.76383,-0.38091 1.76383,-0.4397 0,-0.0588 -0.68461,-0.43474 -1.52135,-0.83544 -1.4036,-0.67216 -1.5444,-0.82148 -1.81914,-1.92925 -0.59146,-2.38486 -1.50224,-3.53137 -3.53867,-4.4546 -1.51217,-0.68556 -2.98575,-0.68556 -4.49792,0 -1.46901,0.66598 -2.28408,1.40767 -2.92916,2.66546 -1.2552,2.44742 -0.79994,5.13087 1.20403,7.09701 1.62368,1.59304 1.95614,2.80019 1.20087,4.36037 -0.8203,1.69451 -1.43013,1.86221 -6.77165,1.86221 -4.38002,0 -4.54707,-0.0201 -5.47843,-0.65857 -0.81265,-0.55712 -1.5969,-1.57777 -2.84673,-3.70484 -1.05442,-1.79452 -1.28943,5.24352 -0.29421,8.81088 1.35354,4.85171 3.57482,7.58339 7.27104,8.94178 1.19503,0.43917 2.00534,0.49435 6.40228,0.43595 l 5.03407,-0.0669 z m -10.80557,-2.95648 c -1.82964,-0.65868 -3.42318,-1.78964 -5.08751,-3.61069 -1.4256,-1.55982 -1.62872,-2.31259 -0.76937,-2.85117 0.37125,-0.23268 0.75587,0.0381 2.24896,1.58309 2.01847,2.08868 3.97399,3.19566 6.08743,3.44597 1.62763,0.19277 3.78308,-0.28289 4.55942,-1.00617 0.75632,-0.70462 0.52825,-1.42385 -0.83159,-2.62241 -0.8527,-0.75157 -1.03243,-1.06017 -0.88606,-1.52135 0.26889,-0.84719 1.27773,-0.73196 2.42712,0.27722 1.08202,0.95003 1.68959,2.15822 1.68959,3.35987 0,1.11251 -1.31263,2.52013 -2.83321,3.03825 -1.68753,0.575 -4.87446,0.53031 -6.60478,-0.0926 z m 9.98119,-21.82873 c -0.42385,-0.51071 0.0854,-1.47212 0.77972,-1.47212 0.69435,0 1.20356,0.96141 0.77971,1.47212 -0.17344,0.20898 -0.52431,0.37996 -0.77971,0.37996 -0.25541,0 -0.60628,-0.17098 -0.77972,-0.37996 z"
                    id="path116"/>
            <path
                    style="fill:#688e9b;stroke-width:0.264583"
                    d="m 402.57117,395.86391 c 0.0945,-0.61847 0.2458,-1.97951 0.33624,-3.02454 l 0.16443,-1.90007 -1.02901,-0.0843 c -0.89493,-0.0733 -1.029,-0.16941 -1.029,-0.7374 0,-0.55696 0.16534,-0.68579 1.12329,-0.87523 1.18236,-0.23382 1.17337,-0.21984 1.51649,-2.35937 0.10441,-0.65103 0.32952,-1.03212 0.67434,-1.14156 0.82414,-0.26157 0.97255,0.0163 0.843,1.57843 l -0.12161,1.46644 h 1.06279 c 0.69134,0 1.11499,0.13604 1.21215,0.38922 0.21787,0.56775 -0.53998,1.19828 -1.44023,1.19828 -0.97493,0 -1.15698,0.41619 -1.56033,3.56708 -0.32557,2.54325 -0.55602,3.04751 -1.39275,3.04751 -0.47598,0 -0.51363,-0.11767 -0.3598,-1.12448 z m -32.47322,0.39605 c -0.22021,-0.35631 0.42864,-10.50645 0.69341,-10.84709 0.38296,-0.49271 2.55175,-0.38906 3.80966,0.18207 0.60712,0.27566 1.30707,0.81134 1.55544,1.1904 0.63775,0.97333 0.37352,2.73525 -0.52627,3.50921 -0.3728,0.32067 -0.67782,0.72588 -0.67782,0.90046 0,0.17458 0.54471,1.26178 1.21047,2.41601 0.66575,1.15422 1.14574,2.26725 1.06663,2.47339 -0.0791,0.20615 -0.49148,0.37481 -0.91639,0.37481 -0.69756,0 -0.8795,-0.20552 -1.87378,-2.11667 -0.60567,-1.16416 -1.24402,-2.11484 -1.41855,-2.11261 -0.69779,0.009 -0.96885,0.48292 -1.13825,1.99044 -0.0975,0.86756 -0.29466,1.72621 -0.43817,1.90811 -0.28638,0.363 -1.1511,0.44744 -1.34638,0.13147 z m 3.49181,-6.41698 c 1.71248,-1.24052 1.34505,-2.90876 -0.64066,-2.90876 h -0.90714 v 1.85208 c 0,1.01865 0.1012,1.85209 0.22488,1.85209 0.12369,0 0.719,-0.35794 1.32292,-0.79541 z m 41.17792,6.3444 c -0.0924,-0.1495 0.0139,-1.78661 0.23625,-3.63802 0.22233,-1.8514 0.47909,-4.17094 0.57058,-5.15454 0.096,-1.03181 0.3332,-1.95523 0.56079,-2.18281 0.45568,-0.45568 0.78835,-0.50164 1.01198,-0.13979 0.14567,0.23569 -0.45378,7.33344 -0.8113,9.60631 -0.21478,1.36542 -1.11918,2.23554 -1.5683,1.50885 z m 3.20784,-0.14655 c -0.0883,-0.23011 0.0115,-1.80769 0.22187,-3.50573 0.21034,-1.69803 0.45969,-3.94227 0.55413,-4.98719 0.1254,-1.38753 0.30934,-2.02442 0.68211,-2.36177 0.97803,-0.88511 1.07426,-0.19258 0.63229,4.55048 -0.52706,5.65621 -0.6194,6.15119 -1.20611,6.46519 -0.63607,0.34041 -0.69608,0.32949 -0.88429,-0.16098 z m -21.93749,-0.14885 c -0.54516,-0.20597 -0.72094,-0.43154 -0.66146,-0.84883 0.0707,-0.4956 0.22504,-0.55754 1.20688,-0.48415 1.75621,0.13127 1.77875,-0.51695 0.0725,-2.08557 -1.23199,-1.13263 -1.37257,-1.36753 -1.20884,-2.0199 0.25638,-1.02147 0.58594,-1.35403 1.62659,-1.64137 1.675,-0.46249 3.638,0.55211 3.01584,1.55878 -0.18955,0.30669 -0.3949,0.30972 -1.27626,0.0188 -1.04652,-0.34538 -1.63593,-0.23837 -1.63593,0.29701 0,0.15497 0.53578,0.75337 1.19063,1.32979 0.88914,0.78265 1.19062,1.23959 1.19062,1.80454 0,1.59793 -1.86647,2.69581 -3.52059,2.07086 z m 14.10933,-0.29266 c -3.03104,-1.54878 -2.62577,-3.9135 0.75311,-4.39435 1.00442,-0.14293 1.24116,-0.28177 1.31056,-0.76857 0.11992,-0.84112 -0.57787,-1.0126 -1.82749,-0.4491 -0.81615,0.36803 -1.12394,0.40373 -1.36889,0.15878 -0.22026,-0.22025 -0.23493,-0.44454 -0.0484,-0.74019 0.38189,-0.60542 2.74344,-1.47567 3.49356,-1.2874 0.88911,0.22315 1.47749,1.75051 1.26899,3.29416 -0.45378,3.3596 -1.04399,4.78199 -1.98425,4.78199 -0.23765,0 -0.95637,-0.26789 -1.59715,-0.59532 z m 1.7973,-2.24895 c 0.0761,-0.7898 0.021,-0.8599 -0.67704,-0.8599 -0.41797,0 -0.99106,0.17867 -1.27353,0.39705 -0.50352,0.38926 -0.50103,0.40768 0.12651,0.93858 0.93707,0.79276 1.72147,0.58818 1.82406,-0.47573 z m -31.8667,2.07545 c -0.88365,-0.40395 -1.18156,-0.73343 -1.56063,-1.72601 -0.40056,-1.04887 -0.42149,-1.38365 -0.14434,-2.30871 0.41689,-1.39145 1.29552,-2.2579 2.52319,-2.48821 1.35686,-0.25455 2.19137,0.20557 2.78823,1.53734 0.6691,1.49293 0.32241,2.00684 -1.81506,2.69056 -0.89392,0.28595 -1.62531,0.61899 -1.62531,0.74009 0,0.45515 1.39305,0.76357 2.19156,0.48521 0.85872,-0.29935 1.24802,-0.17781 1.24802,0.38964 0,0.93089 -2.16411,1.33907 -3.60566,0.68009 z m 1.30675,-3.4829 c 0.821,-0.22798 0.99307,-0.38748 0.92604,-0.85842 -0.12256,-0.86102 -1.6013,-0.95458 -2.17359,-0.13753 -0.8585,1.22569 -0.5285,1.48914 1.24755,0.99595 z m 3.53445,3.61189 c -0.2804,-0.73071 0.55436,-5.53951 1.02082,-5.88059 0.77279,-0.56508 1.26128,-0.13784 1.07155,0.93717 -0.0925,0.52417 -0.23836,1.78648 -0.3241,2.80512 -0.10254,1.21818 -0.29834,1.96528 -0.57209,2.18281 -0.54914,0.43638 -1.01835,0.41892 -1.19618,-0.0445 z m 3.36429,-0.005 c -0.22724,-0.59219 0.31649,-5.96443 0.63601,-6.28396 0.56043,-0.56043 1.11416,-0.0137 1.11416,1.10004 0,0.58665 0.0598,1.06664 0.13298,1.06664 0.0731,0 0.55865,-0.47117 1.07892,-1.04704 1.09506,-1.21211 1.81644,-1.52073 2.40767,-1.03005 0.35604,0.29549 0.39215,0.76582 0.23979,3.12258 -0.17847,2.76036 -0.37675,3.26907 -1.21352,3.11329 -0.32442,-0.0604 -0.38029,-0.48299 -0.30603,-2.31477 l 0.0908,-2.24089 -0.65148,0.60885 c -0.35832,0.33487 -0.98207,1.22784 -1.38613,1.98438 -1.15976,2.17148 -1.82,2.76324 -2.14322,1.92092 z m -2.39504,-7.70886 c -0.20687,-0.53909 0.56689,-1.20755 1.14221,-0.98678 0.21183,0.0813 0.34909,0.40053 0.30501,0.70943 -0.10217,0.7161 -1.19825,0.92615 -1.44722,0.27735 z m -15.76309,-7.58707 c -0.23566,-0.64321 0.30934,-9.80948 0.60039,-10.09801 0.38249,-0.37916 5.48498,-0.32502 5.87231,0.0623 0.21007,0.21006 0.19662,0.40216 -0.0488,0.69793 -0.23956,0.28865 -0.8262,0.40808 -2.00444,0.40808 -2.45249,0 -2.50278,0.0405 -2.50278,2.01269 0,1.60412 0.0324,1.69148 0.62838,1.69148 1.50717,0 2.28203,0.31606 2.28203,0.93081 0,0.69069 -0.56479,0.98882 -1.45159,0.76625 -1.0925,-0.2742 -1.72341,0.29713 -1.72341,1.56067 0,1.17569 -0.57512,2.29852 -1.17732,2.29852 -0.19446,0 -0.40809,-0.14883 -0.47473,-0.33073 z m 13.67264,-0.2821 c -0.17046,-0.44423 0.29831,-6.39292 0.53381,-6.77396 0.0973,-0.15737 0.40793,-0.28613 0.69038,-0.28613 0.39816,0 0.51356,0.18473 0.51356,0.82206 0,0.68157 0.0791,0.78839 0.46302,0.62508 1.08213,-0.46038 2.39721,-0.72925 2.80376,-0.57325 0.67637,0.25955 0.51735,0.95817 -0.29022,1.27501 -2.95536,1.15949 -2.97656,1.17795 -2.97656,2.59294 0,1.73191 -0.37156,2.6665 -1.06009,2.6665 -0.29921,0 -0.60416,-0.15672 -0.67766,-0.34825 z m 14.5381,-0.0802 c -0.56452,-0.19652 -1.06198,-0.35911 -1.10548,-0.3613 -0.2091,-0.0105 -1.10062,-2.32811 -1.10573,-2.87441 -0.009,-0.99775 0.81166,-2.44333 1.6928,-2.98065 1.48246,-0.904 3.00491,-0.56918 3.72261,0.8187 0.89914,1.73874 0.43985,2.41145 -2.18008,3.19313 -0.61846,0.18453 -1.12447,0.43867 -1.12447,0.56476 0,0.46274 1.38558,0.77524 2.19155,0.49428 0.85585,-0.29835 1.24803,-0.17789 1.24803,0.38333 0,0.82223 -1.91266,1.25878 -3.33923,0.76216 z m 1.11913,-3.66758 c 1.19488,-0.49925 1.15463,-1.28955 -0.0718,-1.40892 -0.62318,-0.0607 -0.93842,0.0705 -1.2546,0.52189 -0.88061,1.25725 -0.37268,1.59694 1.32636,0.88703 z m -8.98752,3.03486 c -1.08771,-0.95502 -1.33795,-1.78048 -0.96247,-3.1749 0.32734,-1.21566 1.52904,-2.24969 2.91243,-2.50606 1.09523,-0.20297 2.37849,0.21417 2.37849,0.77317 0,0.48724 -0.96542,1.03416 -1.47818,0.8374 -0.57733,-0.22155 -1.62023,0.27081 -2.08899,0.98623 -0.34298,0.52344 -0.36238,0.7669 -0.10598,1.32964 0.37013,0.81233 1.02027,1.06845 2.52624,0.99518 1.34217,-0.0653 1.72773,0.39542 0.89512,1.06963 -0.39861,0.32276 -1.03252,0.48631 -1.88498,0.48631 -1.05085,0 -1.44938,-0.14485 -2.19168,-0.7966 z m -13.10475,-0.40997 c -1.0803,-0.90902 -1.28719,-2.10623 -0.62124,-3.59498 0.75637,-1.6909 1.45975,-2.2099 2.99496,-2.2099 1.5542,0 2.53366,0.80726 2.88852,2.38069 0.67947,3.01265 -2.94694,5.37239 -5.26224,3.42419 z m 3.07514,-1.16572 c 0.78118,-0.72778 0.95557,-1.46571 0.54822,-2.3198 -0.47877,-1.00386 -1.8578,-1.16539 -2.42783,-0.28439 -0.73012,1.12842 -0.79207,1.96966 -0.18942,2.57231 0.69127,0.69127 1.35036,0.70142 2.06903,0.0319 z m 26.65773,-6.30571 c -4.33909,-1.50042 -7.18462,-4.89216 -8.63601,-10.2937 -0.42589,-1.58503 -0.56196,-2.92041 -0.58759,-5.76684 -0.0297,-3.29532 0.0266,-3.80621 0.50979,-4.62875 0.65647,-1.1175 1.66799,-1.54709 2.62071,-1.11301 0.3694,0.16831 1.10464,0.99328 1.63386,1.83327 1.81779,2.88518 1.42133,2.71787 6.44027,2.71787 3.06858,0 4.4949,-0.096 4.71638,-0.3175 0.58011,-0.58011 0.32955,-1.41281 -0.78374,-2.60462 -2.09241,-2.24001 -2.79864,-5.14867 -1.95484,-8.05122 0.3577,-1.23045 0.75243,-1.84628 1.9507,-3.0433 2.27981,-2.27745 5.11745,-2.97172 8.05503,-1.97078 2.2194,0.75622 4.4682,3.28582 5.03951,5.66876 0.12555,0.52367 0.74353,0.95245 2.96518,2.05735 2.6184,1.30221 2.80101,1.44395 2.72352,2.11381 -0.081,0.70026 -0.16357,0.73258 -3.33929,1.30732 -3.23909,0.58621 -3.2624,0.59567 -4.43177,1.79886 -0.81001,0.83344 -1.17429,1.43264 -1.1715,1.927 0.005,0.96231 0.20403,1.21212 1.47621,1.85694 3.46162,1.75454 4.53592,6.20992 2.53064,10.49511 -1.38017,2.94934 -3.94469,5.20401 -6.90319,6.06912 -2.13546,0.62445 -10.99802,0.58605 -12.85387,-0.0557 z m 13.66694,-2.24147 c 1.81803,-0.89282 3.47668,-2.63652 4.41803,-4.6446 0.56812,-1.2119 0.7039,-1.88831 0.7039,-3.50652 0,-1.79031 -0.0797,-2.10941 -0.74401,-2.98042 -0.4092,-0.5365 -1.3292,-1.27199 -2.04444,-1.63442 -1.57379,-0.79751 -2.10634,-1.71842 -2.10634,-3.6424 0,-1.31314 0.0785,-1.49582 1.00068,-2.32824 0.55038,-0.49681 1.19372,-1.18126 1.42965,-1.52099 0.41021,-0.59069 0.94968,-0.77951 3.5228,-1.23305 l 1.05833,-0.18654 -1.69607,-0.85867 c -1.64107,-0.83082 -1.70781,-0.90454 -2.05822,-2.27376 -1.23869,-4.84022 -6.89944,-6.3823 -10.09635,-2.75042 -1.22518,1.39188 -1.76426,3.08135 -1.52957,4.79364 0.1912,1.39493 1.24909,3.37604 2.02431,3.79093 0.75078,0.4018 1.31736,1.65799 1.31736,2.92075 0,0.89585 -0.16558,1.26351 -0.89959,1.99752 l -0.89958,0.89958 h -4.88212 c -5.77144,0 -5.94242,-0.065 -7.85007,-2.9861 -0.83687,-1.28147 -1.25111,-1.71012 -1.45521,-1.50586 -0.17631,0.17646 -0.28139,1.61973 -0.27505,3.77782 0.008,2.81169 0.12737,3.90477 0.61124,5.60893 1.30595,4.59947 3.59941,7.30298 7.42343,8.75065 0.70763,0.26789 2.30472,0.3453 6.24257,0.30259 5.19165,-0.0563 5.31988,-0.0713 6.78432,-0.79042 z m -10.2239,-2.93009 c -2.05752,-0.68191 -3.45977,-1.58976 -5.22552,-3.38311 -1.85766,-1.8867 -2.16264,-2.65544 -1.24774,-3.14507 0.47291,-0.2531 0.73024,-0.0819 2.12149,1.41161 2.01974,2.16815 4.20435,3.37349 6.43532,3.55064 2.6289,0.20874 4.92791,-0.70676 4.92791,-1.96237 0,-0.24449 -0.56027,-0.96627 -1.24504,-1.60396 -1.01873,-0.94869 -1.19416,-1.24059 -0.96516,-1.60599 0.46399,-0.74035 1.29779,-0.66687 2.28686,0.20155 1.23167,1.08141 1.87437,2.47607 1.6834,3.65291 -0.18212,1.12229 -0.75958,1.79732 -2.15694,2.5214 -1.3255,0.68685 -5.02419,0.88949 -6.61458,0.36239 z m 9.5691,-21.78099 c -0.33683,-0.33683 -0.17405,-1.35539 0.24212,-1.51509 0.56012,-0.21494 0.54353,-0.2191 1.01727,0.25465 0.31345,0.31344 0.34823,0.54047 0.14188,0.92604 -0.26715,0.49917 -1.04974,0.68593 -1.40127,0.3344 z"
                    id="path114"/>
            <path
                    style="fill:#4a7686;stroke-width:0.264583"
                    d="m 402.6044,396.72877 c -0.0883,-0.14279 -0.0415,-0.94646 0.10383,-1.78593 0.14535,-0.83948 0.29812,-2.06211 0.33947,-2.71695 l 0.0752,-1.19063 -1.00315,-0.083 c -0.56937,-0.0471 -1.06678,-0.24879 -1.15028,-0.4664 -0.22378,-0.58315 0.41498,-1.1704 1.27306,-1.1704 0.83816,0 1.13126,-0.44908 1.4073,-2.15623 0.17188,-1.06297 0.72509,-1.68544 1.30138,-1.4643 0.29927,0.11484 0.32118,0.38221 0.11178,1.36405 -0.36011,1.6884 -0.17512,2.03294 1.04035,1.93767 0.84307,-0.0661 1.0082,0.008 1.07594,0.48276 0.0831,0.58248 -0.50056,0.88326 -1.72863,0.89077 -0.67165,0.004 -0.71876,0.1454 -1.14452,3.4321 -0.15944,1.23082 -0.40407,2.45121 -0.54363,2.71198 -0.27541,0.51462 -0.901,0.63049 -1.15809,0.2145 z m -32.36691,-0.60905 c -0.19378,-0.23349 -0.20613,-1.12155 -0.0396,-2.84427 0.1332,-1.37762 0.24541,-3.64182 0.24936,-5.03154 0.005,-1.6035 0.12318,-2.64279 0.32467,-2.84427 0.68621,-0.68622 3.89891,-0.1 5.022,0.91641 0.56012,0.50691 0.87173,1.92162 0.60698,2.75577 -0.10406,0.32786 -0.54218,0.9185 -0.9736,1.31255 l -0.7844,0.71643 1.32382,2.31677 c 1.402,2.45357 1.47978,3.12241 0.3477,2.98982 -0.55109,-0.0645 -0.90243,-0.47298 -1.77619,-2.06484 -0.7639,-1.39168 -1.25972,-2.00961 -1.66005,-2.06886 -0.68342,-0.10116 -1.10085,0.78302 -1.10085,2.33177 0,1.41684 -0.89241,2.29441 -1.53988,1.51426 z m 3.25463,-6.15382 c 1.30228,-0.76319 1.54673,-1.18227 1.20852,-2.07185 -0.26715,-0.70264 -0.76816,-0.95983 -1.86981,-0.95983 -0.65879,0 -0.76594,0.10992 -0.83826,0.8599 -0.0972,1.00836 0.0503,2.84427 0.2285,2.84427 0.0679,0 0.63992,-0.30262 1.27105,-0.67249 z m 36.73619,5.58623 c -3.01098,-1.40192 -2.7604,-3.50934 0.50437,-4.24178 1.11037,-0.2491 1.41087,-0.43008 1.47835,-0.89037 0.11916,-0.81269 -0.57077,-0.98909 -1.87097,-0.47836 -0.80539,0.31637 -1.14421,0.34919 -1.2832,0.12429 -0.31441,-0.50871 0.006,-0.9251 1.08491,-1.41182 1.93186,-0.87114 3.26358,-0.39442 3.50566,1.25495 0.16189,1.10305 -0.51932,4.93997 -1.01001,5.68886 -0.4893,0.74676 -0.7162,0.74245 -2.40911,-0.0458 z m 1.71635,-2.20176 c 0.0768,-0.79641 0.0247,-0.8599 -0.70597,-0.8599 -1.65396,0 -2.13191,0.67156 -1.03059,1.44806 0.93623,0.66009 1.63916,0.42201 1.73656,-0.58816 z m 2.83588,2.59323 c -0.0853,-0.13807 -0.0399,-1.00127 0.10097,-1.91823 0.14087,-0.91695 0.39674,-3.09594 0.56861,-4.84219 0.17186,-1.74625 0.42124,-3.38336 0.55417,-3.63802 0.24614,-0.47153 0.88601,-0.62417 1.10836,-0.2644 0.22651,0.3665 -0.86552,10.17439 -1.17425,10.54639 -0.35157,0.42361 -0.93195,0.48199 -1.15786,0.11645 z m 3.20648,0.0509 c -0.068,-0.11005 0.031,-1.38997 0.21995,-2.84427 0.18899,-1.4543 0.43157,-3.70133 0.53906,-4.99342 0.15184,-1.82499 0.31388,-2.46767 0.72615,-2.87993 0.45213,-0.45214 0.56327,-0.47249 0.75076,-0.13746 0.29238,0.52245 -0.71144,10.208 -1.10742,10.68513 -0.33288,0.4011 -0.93006,0.49104 -1.1285,0.16995 z m -32.88948,-0.47355 c -0.20344,-0.53015 0.11757,-3.96635 0.47608,-5.0961 0.21596,-0.68055 0.40426,-0.85692 0.84747,-0.79375 0.4307,0.0614 0.55468,0.2427 0.5078,0.74266 -0.0341,0.36381 -0.14105,1.59333 -0.23763,2.73228 -0.16486,1.94392 -0.53345,2.82397 -1.18276,2.82397 -0.13969,0 -0.32462,-0.18407 -0.41096,-0.40906 z m 3.21337,0.13975 c -0.17551,-0.28398 0.32605,-6.01189 0.5595,-6.38963 0.22668,-0.36676 0.8317,-0.2471 1.00261,0.19829 0.0883,0.23018 0.16137,0.85526 0.16231,1.38906 l 0.002,0.97055 1.04917,-1.22396 c 1.18732,-1.38513 1.93514,-1.70364 2.55189,-1.08688 0.35306,0.35305 0.39092,0.82478 0.23704,2.953 -0.1873,2.59046 -0.50102,3.34273 -1.27084,3.04732 -0.371,-0.14236 -0.41036,-0.46883 -0.27234,-2.25868 0.10873,-1.41013 0.069,-2.09226 -0.12175,-2.09226 -0.26381,0 -1.72656,2.09487 -2.7596,3.95217 -0.46296,0.83234 -0.847,1.01464 -1.13971,0.54102 z m 7.33188,-0.0482 c -0.41447,-0.41447 -0.40695,-0.99925 0.0132,-1.02821 0.1819,-0.0125 0.74745,-0.0423 1.25677,-0.0661 1.4373,-0.0673 1.38622,-0.9088 -0.12085,-1.9911 -0.99739,-0.71627 -1.20138,-1.00688 -1.19802,-1.70672 0.002,-0.4639 0.0915,-0.97445 0.19844,-1.13457 0.5874,-0.87971 2.94316,-1.20623 3.83241,-0.53119 0.25466,0.19331 0.46302,0.62012 0.46302,0.94847 0,0.5039 -0.10314,0.57155 -0.66146,0.43385 -0.3638,-0.0897 -0.95763,-0.23626 -1.31963,-0.32564 -0.47011,-0.11608 -0.70563,-0.0388 -0.82427,0.27036 -0.11428,0.29781 0.21491,0.7877 1.05504,1.57006 1.42572,1.32769 1.58325,2.21737 0.57172,3.2289 -0.49025,0.49026 -0.93124,0.64943 -1.79917,0.64943 -0.63235,0 -1.29261,-0.14287 -1.46723,-0.3175 z m -16.20237,-0.67468 c -1.48439,-1.33015 -1.52495,-3.62931 -0.0905,-5.12661 1.31252,-1.36997 3.25236,-1.23732 4.15094,0.28385 0.99494,1.68431 0.46476,2.47287 -2.13239,3.17157 -0.61847,0.16639 -1.12448,0.4128 -1.12448,0.5476 0,0.48453 1.10553,0.8314 2.10932,0.66181 1.14615,-0.19364 1.5457,0.1424 0.91692,0.77117 -0.26772,0.26772 -0.88594,0.41821 -1.71805,0.41821 -1.04478,0 -1.45917,-0.14277 -2.11181,-0.7276 z m 2.28084,-3.101 c 0.79825,-0.33353 0.89243,-0.46118 0.66031,-0.89492 -0.41998,-0.78473 -1.10605,-0.91576 -1.85985,-0.35522 -0.88574,0.65866 -1.05776,1.63916 -0.28758,1.63916 0.30583,0 0.97504,-0.17506 1.48712,-0.38902 z m 4.23543,-3.80531 c -0.29586,-0.47871 0.1616,-1.12731 0.73717,-1.04518 0.76987,0.10984 0.76273,1.10981 -0.009,1.21974 -0.31369,0.0447 -0.6415,-0.0338 -0.72846,-0.17456 z M 370.28544,380.187 c -0.2426,-0.63221 0.16031,-9.74147 0.44372,-10.03177 0.31867,-0.32642 5.55675,-0.2496 5.89277,0.0864 0.60617,0.60617 -0.35818,1.05935 -2.42067,1.13755 l -2.02701,0.0768 -0.1745,1.4298 c -0.096,0.78639 -0.11589,1.58255 -0.0443,1.76924 0.0716,0.18669 0.74548,0.43697 1.49742,0.55617 1.13529,0.17997 1.3815,0.31742 1.45171,0.81044 0.0768,0.5396 -0.0237,0.59372 -1.10284,0.59372 -1.79062,0 -2.02385,0.16299 -2.02832,1.41737 -0.006,1.73684 -1.06177,3.26502 -1.48803,2.15421 z m 13.74553,-0.0715 c -0.23486,-0.15212 -0.25699,-1.01737 -0.0877,-3.42963 0.12452,-1.77439 0.30266,-3.34957 0.39587,-3.50038 0.0932,-0.15082 0.40057,-0.27422 0.68302,-0.27422 0.39423,0 0.51356,0.18444 0.51356,0.79375 0,0.88074 0.31249,0.97449 1.32291,0.39688 0.75025,-0.42888 2.01119,-0.51702 2.2342,-0.15617 0.30561,0.49448 -0.17867,1.01677 -1.23671,1.33376 -1.85385,0.55543 -2.31643,0.99334 -2.35171,2.22628 -0.0666,2.32934 -0.55925,3.20184 -1.47343,2.60973 z m 7.16367,-0.31979 c -2.17264,-0.87784 -2.24522,-4.58586 -0.11135,-5.68933 0.84495,-0.43694 3.32595,-0.54871 3.56578,-0.16065 0.35678,0.57727 -0.1956,1.08221 -1.18387,1.08221 -0.70027,0 -1.25921,0.20993 -1.82378,0.68498 -0.93691,0.78836 -1.02027,1.38298 -0.31583,2.25292 0.41694,0.5149 0.75146,0.6168 2.05052,0.62463 1.18534,0.007 1.5523,0.10132 1.5523,0.39841 0,0.85241 -2.35922,1.36221 -3.73377,0.80683 z m 6.90877,0.009 c -1.33476,-0.54631 -2.1383,-2.47751 -1.69654,-4.07742 0.32191,-1.16587 1.53894,-2.27326 2.70656,-2.46274 0.84845,-0.13769 1.07103,-0.0451 1.91082,0.79466 0.7697,0.76971 0.9346,1.11568 0.86691,1.81895 -0.0778,0.80868 -0.20127,0.9103 -1.79342,1.47633 -2.07207,0.73664 -2.13183,0.789 -1.46474,1.2834 0.3694,0.27377 0.86056,0.34316 1.62977,0.23026 1.28753,-0.189 1.6795,0.17593 0.82891,0.77171 -0.63024,0.44143 -2.11269,0.52321 -2.98827,0.16485 z m 2.04902,-3.75322 c 0.36088,-0.19314 0.41022,-0.36625 0.21065,-0.73914 -0.36084,-0.67425 -1.00125,-0.86773 -1.68352,-0.50862 -0.70781,0.37254 -0.96369,0.73642 -0.96897,1.37795 -0.003,0.42571 0.12979,0.46736 0.98326,0.30724 0.54303,-0.10187 1.19939,-0.29871 1.45858,-0.43743 z m -22.55335,2.89228 c -1.01826,-0.69188 -1.33673,-1.63642 -1.03245,-3.06209 0.44691,-2.09401 2.16446,-3.26983 3.98122,-2.72552 1.40431,0.42074 2.07744,1.38291 2.07744,2.96949 0,1.09056 -0.13499,1.43842 -0.86898,2.23935 -1.17287,1.27981 -2.79343,1.50543 -4.15723,0.57877 z m 3.05386,-1.39045 c 0.35719,-0.35719 0.64943,-0.95791 0.64943,-1.33494 0,-0.72711 -1.05279,-1.98438 -1.66164,-1.98438 -0.52253,0 -1.44391,1.06887 -1.6552,1.92016 -0.24425,0.98406 0.45758,2.04859 1.35059,2.04859 0.36707,0 0.95963,-0.29224 1.31682,-0.64943 z m 26.51561,-6.20456 c -5.78897,-1.88794 -9.19461,-7.7187 -9.28701,-15.90017 -0.0438,-3.88126 0.26724,-5.09631 1.46303,-5.71468 1.305,-0.67484 1.91926,-0.31477 3.44249,2.01793 1.67111,2.55916 1.8887,2.64574 6.56114,2.61056 4.20641,-0.0317 4.60565,-0.13747 4.71386,-1.24922 0.0698,-0.7174 -0.13228,-1.09565 -1.22323,-2.28932 -4.40837,-4.82347 -1.39235,-12.52917 5.10055,-13.0315 3.83782,-0.29692 7.08877,2.24713 8.21067,6.42532 0.0411,0.15316 1.33769,0.89249 2.88125,1.64297 2.42288,1.17798 2.80649,1.4525 2.80649,2.00832 0,0.79083 -0.0154,0.79675 -3.58138,1.38195 -2.81317,0.46165 -2.93324,0.50961 -4.16839,1.66494 -1.16385,1.08865 -1.26507,1.28055 -1.19278,2.26122 0.0727,0.98654 0.18251,1.1262 1.3826,1.75907 2.53097,1.33469 3.786,3.74369 3.50699,6.73159 -0.39713,4.25277 -3.08063,7.87149 -6.99284,9.42991 -1.38095,0.55009 -2.01204,0.61273 -6.81358,0.67624 -4.57854,0.0606 -5.49626,0.003 -6.80986,-0.42513 z m 13.69427,-2.18158 c 1.65704,-0.87483 3.69487,-3.02435 4.41885,-4.66102 0.68078,-1.53902 0.93188,-4.50461 0.47483,-5.60803 -0.36591,-0.88339 -2.19019,-2.65579 -2.73352,-2.65579 -0.19063,0 -0.6887,-0.35707 -1.10681,-0.79349 -0.6222,-0.64943 -0.78104,-1.08154 -0.87498,-2.38029 l -0.11478,-1.58681 1.74596,-1.69516 c 1.56847,-1.52282 1.88775,-1.71421 3.14059,-1.88257 2.24285,-0.3014 2.37195,-0.52435 0.72587,-1.2535 -1.67908,-0.74377 -1.97747,-1.05167 -2.24298,-2.31443 -0.41838,-1.98981 -1.55077,-3.39395 -3.43827,-4.26338 -3.77059,-1.73684 -8.33438,1.2061 -8.33438,5.37438 0,1.79071 0.55447,3.08392 2.03237,4.74024 1.54707,1.73383 1.78089,2.71285 1.00586,4.21158 -0.71963,1.39162 -1.47876,1.57889 -6.39852,1.57843 -5.47481,-5e-4 -5.74899,-0.10392 -7.58845,-2.8621 -0.93539,-1.40257 -1.37129,-1.85661 -1.58106,-1.64685 -0.15929,0.15929 -0.33537,1.52537 -0.39128,3.03572 -0.17968,4.8541 1.23141,9.52318 3.68136,12.18107 1.46418,1.58845 2.31425,2.18237 4.01893,2.80791 1.22401,0.44916 2.01252,0.5003 6.80829,0.44164 5.29548,-0.0648 5.45542,-0.083 6.75212,-0.76755 z m -10.45628,-3.08644 c -1.81852,-0.60399 -3.23823,-1.49527 -4.80065,-3.01376 -1.5488,-1.50527 -2.13415,-2.40307 -1.92392,-2.95091 0.31573,-0.82277 1.1142,-0.42854 3.05668,1.50918 2.51216,2.50602 4.13242,3.1908 7.15131,3.0224 2.04103,-0.11386 3.25836,-0.5957 3.57239,-1.41403 0.24798,-0.64623 -0.40364,-1.79813 -1.37444,-2.42965 -1.0244,-0.6664 -1.07585,-0.80623 -0.55748,-1.51515 0.32238,-0.44088 0.4515,-0.45692 1.19599,-0.14854 1.09747,0.45458 2.06428,1.6339 2.41879,2.95044 0.41833,1.55356 -0.25651,2.81078 -1.96264,3.65636 -1.7471,0.8659 -4.73117,1.01284 -6.77603,0.33366 z m 9.85573,-21.6553 c -0.46353,-0.18703 -0.41366,-1.32383 0.0661,-1.50795 0.63941,-0.24536 1.19063,0.10517 1.19063,0.75714 0,0.46563 -0.57031,1.05122 -0.88154,0.90515 -0.0245,-0.0115 -0.19333,-0.0809 -0.37523,-0.15434 z"
                    id="path112"/>
            <path
                    style="fill:#346577;stroke-width:0.264583"
                    d="m 402.61197,396.74101 c -0.0841,-0.13605 -0.0423,-0.76113 0.0928,-1.38906 0.13513,-0.62793 0.32634,-1.87451 0.42491,-2.77019 0.1648,-1.49757 0.135,-1.64252 -0.37065,-1.80301 -0.30242,-0.096 -0.6752,-0.0971 -0.8284,-0.002 -0.1532,0.0947 -0.44942,0.0303 -0.65827,-0.143 -0.59331,-0.4924 -0.0134,-1.31791 0.92577,-1.31791 0.92318,0 1.11516,-0.25982 1.46625,-1.98437 0.21779,-1.06975 0.38313,-1.3392 0.86398,-1.408 0.56469,-0.0808 0.59112,-0.007 0.52443,1.4552 l -0.0702,1.54031 1.1408,0.0821 c 1.5626,0.11253 1.43615,0.83891 -0.216,1.24079 l -1.18938,0.2893 -0.4274,2.93182 c -0.23508,1.6125 -0.50999,3.06545 -0.61093,3.22877 -0.2228,0.3605 -0.85734,0.38997 -1.0677,0.0496 z m -32.38601,-0.63983 c -0.15027,-0.1839 -0.15973,-1.13723 -0.024,-2.42008 0.12317,-1.16417 0.23037,-3.37384 0.23822,-4.91037 0.018,-3.52234 0.19724,-3.83464 2.0735,-3.61242 1.99152,0.23586 3.38745,1.03909 3.75821,2.16251 0.38006,1.15159 0.16973,1.89009 -0.842,2.95645 l -0.78701,0.82951 1.22888,2.16573 c 1.33983,2.36126 1.43058,3.05442 0.3999,3.05442 -0.54797,0 -0.83461,-0.33097 -1.71617,-1.98158 -1.11089,-2.07997 -1.79997,-2.56229 -2.42991,-1.70079 -0.19152,0.26192 -0.34984,0.89994 -0.35183,1.41783 -0.002,0.51789 -0.0725,1.19851 -0.15675,1.51247 -0.17568,0.65487 -1.02377,0.97575 -1.39105,0.52632 z m 3.55426,-6.26925 c 0.67005,-0.46101 1.17215,-1.01514 1.17215,-1.29361 0,-0.81978 -0.85636,-1.59229 -1.8479,-1.66697 -0.85754,-0.0646 -0.93857,-0.003 -1.1614,0.8829 -0.26889,1.069 -0.021,2.88414 0.39393,2.88414 0.14909,0 0.79854,-0.36291 1.44322,-0.80646 z m 41.07824,6.09244 c -0.13709,-0.41127 0.97671,-10.1571 1.20256,-10.52254 0.45898,-0.74265 0.9601,-0.32282 0.96062,0.80479 0.001,2.04578 -0.84028,9.3205 -1.11674,9.65729 -0.32785,0.39939 -0.92202,0.43372 -1.04644,0.0605 z m 3.21605,-0.32505 c -0.011,-1.32289 0.86828,-9.36724 1.08447,-9.92187 0.22394,-0.57451 0.87844,-0.8051 1.12649,-0.39688 0.21481,0.35354 -0.89684,10.21495 -1.19153,10.57003 -0.44942,0.54151 -1.014,0.40235 -1.01943,-0.25128 z m -22.3422,-0.026 c -0.6931,-0.50682 -0.26822,-0.99123 0.80597,-0.91889 0.56374,0.038 1.07615,-0.10638 1.35009,-0.38032 0.41229,-0.41229 0.35085,-0.52376 -0.92849,-1.68432 -1.02065,-0.92589 -1.37001,-1.42947 -1.37001,-1.97478 0,-1.56053 2.62222,-2.44309 3.98356,-1.34075 0.71982,0.58288 0.54873,1.55076 -0.21548,1.21897 -0.25343,-0.11003 -0.83076,-0.2525 -1.28296,-0.31658 -1.34367,-0.19042 -1.33749,0.54726 0.0139,1.6546 0.6342,0.51968 1.22722,1.24023 1.31783,1.60123 0.17693,0.70495 -0.20468,1.63726 -0.88348,2.15843 -0.56493,0.43373 -2.18767,0.42351 -2.79091,-0.0176 z m 14.67423,0.0664 c -1.10053,-0.44791 -2.11667,-1.59328 -2.11667,-2.38584 0,-0.98534 0.99038,-1.7095 2.63663,-1.92788 1.15578,-0.15332 1.33212,-0.25606 1.33212,-0.77614 0,-1.00405 -0.47887,-1.26254 -1.52735,-0.82447 -1.16816,0.4881 -1.64765,0.48606 -1.64765,-0.007 0,-0.58489 1.18136,-1.24577 2.49069,-1.39335 1.03446,-0.1166 1.21003,-0.0546 1.62079,0.57229 0.37607,0.57396 0.43369,1.07771 0.31381,2.74338 -0.0808,1.12218 -0.30582,2.51658 -0.50013,3.09866 -0.29931,0.89665 -0.47455,1.06683 -1.14703,1.11394 -0.43657,0.0306 -1.09141,-0.0655 -1.45521,-0.21361 z m 1.64753,-2.11546 c 0.13694,-0.93305 -0.12004,-1.11133 -1.42174,-0.98633 -1.65704,0.15913 -1.12044,1.80458 0.5885,1.80458 0.59485,0 0.73307,-0.13572 0.83324,-0.81825 z m -32.27965,1.61089 c -1.01006,-0.61583 -1.38246,-1.43473 -1.38246,-3.03998 0,-0.94747 0.15984,-1.32404 0.89113,-2.09944 1.72177,-1.82561 4.4228,-1.03846 4.50029,1.31149 0.0323,0.97867 0.0189,0.99163 -1.68581,1.63462 -0.94509,0.35647 -1.76573,0.69551 -1.82364,0.75343 -0.0579,0.0579 0.0565,0.30029 0.25434,0.53862 0.278,0.33497 0.64521,0.39951 1.61783,0.28432 1.43496,-0.16995 1.82,0.12561 0.95391,0.73224 -0.81338,0.56971 -2.28579,0.51867 -3.32559,-0.1153 z m 2.54814,-3.55152 c 0.38124,-0.38123 0.36907,-0.46737 -0.13759,-0.97403 -0.85115,-0.85114 -2.4701,-0.10343 -2.4701,1.14082 0,0.48624 0.11821,0.52925 1.09474,0.39827 0.6021,-0.0808 1.28293,-0.33504 1.51295,-0.56506 z m 2.79802,1.99121 c 0.2287,-2.62179 0.45702,-3.48326 1.01678,-3.83634 0.70724,-0.44612 0.9968,0.0794 0.71458,1.29696 -0.1349,0.58195 -0.24812,1.63147 -0.25159,2.33226 -0.008,1.54716 -0.36963,2.29771 -1.10812,2.29771 -0.53095,0 -0.54643,-0.0871 -0.37165,-2.09059 z m 3.08605,1.49528 c 0.0138,-0.32742 0.16262,-1.78449 0.33073,-3.23792 0.24981,-2.15989 0.39022,-2.65882 0.76866,-2.73138 0.36951,-0.0709 0.46302,0.0978 0.46302,0.83503 0,1.82055 0.23329,1.91568 1.44943,0.59104 1.41153,-1.53744 2.42081,-1.67213 2.63446,-0.35156 0.0765,0.47294 0.0521,1.81239 -0.0542,2.97656 -0.1794,1.96471 -0.23862,2.12308 -0.82487,2.20597 -0.62766,0.0887 -0.63078,0.0768 -0.5022,-1.92683 0.0786,-1.22453 0.0237,-2.08146 -0.1398,-2.18251 -0.35832,-0.22145 -1.35467,1.02352 -2.31732,2.89556 -0.55466,1.07862 -0.93521,1.52135 -1.30768,1.52135 -0.37586,0 -0.51822,-0.1694 -0.50027,-0.59531 z m -2.28121,-7.08919 c -0.21014,-0.34001 0.34195,-1.04675 0.81769,-1.04675 0.52981,0 0.72941,0.50515 0.37048,0.93763 -0.37379,0.45038 -0.94485,0.50283 -1.18817,0.10912 z m -15.61325,-7.6775 c -0.26815,-0.43388 0.16308,-9.59177 0.46956,-9.97185 0.32013,-0.39701 5.14664,-0.45832 5.75593,-0.0731 0.76153,0.48145 -0.21366,0.92825 -2.32513,1.06529 l -2.03828,0.1323 -0.24259,1.53012 c -0.2926,1.8456 -0.11635,2.09324 1.63285,2.29431 1.03765,0.11927 1.26993,0.24526 1.33832,0.72593 0.0761,0.5345 -0.0418,0.58808 -1.4552,0.66146 l -1.53797,0.0798 -0.2658,1.67294 c -0.26115,1.64365 -0.91134,2.5629 -1.33169,1.88277 z m 13.56337,-0.44685 c -0.1971,-0.37646 0.32858,-6.51331 0.57941,-6.76415 0.42209,-0.42208 1.08076,0.0268 1.08076,0.73657 0,0.79479 -0.0189,0.79219 1.59306,0.21969 1.07702,-0.38252 1.33254,-0.39586 1.70244,-0.0889 0.56313,0.46735 0.20062,0.81715 -1.48873,1.43655 -0.67976,0.24924 -1.36757,0.61178 -1.52846,0.80564 -0.16089,0.19387 -0.36608,1.1401 -0.45598,2.10274 -0.14957,1.60172 -0.215,1.75026 -0.77102,1.75026 -0.33417,0 -0.65434,-0.0893 -0.71148,-0.19843 z m 7.31651,-0.16744 c -1.1424,-0.51699 -1.68759,-1.40205 -1.68759,-2.73959 0,-0.92236 0.16872,-1.31975 0.89841,-2.11598 0.83765,-0.91404 1.00319,-0.98089 2.4474,-0.9883 1.37524,-0.007 1.54898,0.0514 1.54898,0.5212 0,0.43154 -0.20313,0.54397 -1.10103,0.60938 -2.17408,0.15839 -3.20919,2.07789 -1.74324,3.23267 0.60216,0.47435 0.94088,0.54496 1.96473,0.40957 0.79523,-0.10516 1.30259,-0.0577 1.42037,0.13289 0.55463,0.89741 -2.27371,1.60537 -3.74803,0.93816 z m 6.57404,-0.1644 c -1.00982,-0.61569 -1.38247,-1.43473 -1.38247,-3.03852 0,-2.01462 2.13297,-3.69345 3.85886,-3.03727 0.69826,0.26548 1.69483,1.7005 1.6964,2.44277 0.001,0.55963 -1.37668,1.45128 -2.59982,1.68239 -0.96772,0.18286 -1.3904,0.80562 -0.81118,1.19517 0.20311,0.13661 0.93483,0.18002 1.62605,0.0965 1.00801,-0.12182 1.25677,-0.0734 1.25677,0.24479 0,1.00008 -2.26203,1.25715 -3.64461,0.41419 z m 2.5686,-3.57479 c 0.32906,-0.32662 0.31489,-0.44742 -0.10716,-0.91378 -0.26749,-0.29557 -0.67952,-0.53741 -0.91563,-0.53741 -0.76179,0 -1.60536,0.79033 -1.60536,1.50403 0,0.65191 0.0469,0.67284 1.12448,0.5019 0.61846,-0.0981 1.29511,-0.34774 1.50367,-0.55474 z m -22.38492,3.1902 c -1.04946,-0.45651 -1.41038,-1.11611 -1.40815,-2.57347 0.003,-1.9906 1.27614,-3.3688 3.1245,-3.38242 1.41238,-0.0104 2.0443,0.31282 2.55956,1.30921 0.84825,1.64035 0.18472,3.78888 -1.42763,4.62266 -0.96431,0.49866 -1.74205,0.50522 -2.84828,0.024 z m 2.80423,-1.63436 c 0.71551,-0.90962 0.69391,-1.74999 -0.0677,-2.63546 -0.49118,-0.57103 -0.75847,-0.68055 -1.31811,-0.54009 -0.75406,0.18926 -1.50536,1.34581 -1.50536,2.31736 0,1.52356 1.91963,2.09336 2.89121,0.85819 z m 26.97825,-6.02433 c -6.20473,-1.77231 -9.83205,-7.84725 -9.83565,-16.47247 -10e-4,-2.7125 0.0796,-3.3565 0.51409,-4.10044 1.11951,-1.91687 2.79004,-1.80425 3.98091,0.26838 0.97488,1.69671 1.61009,2.49636 2.28247,2.8734 0.37749,0.21167 1.95024,0.32455 4.60799,0.33073 3.68917,0.009 4.08024,-0.036 4.56406,-0.51979 0.76818,-0.76819 0.66968,-1.14705 -0.69888,-2.68797 -1.72007,-1.93671 -2.31206,-3.37756 -2.3199,-5.64641 -0.0149,-4.31977 3.29888,-7.62903 7.64899,-7.63854 2.24118,-0.005 3.84467,0.6353 5.3423,2.13292 1.05069,1.0507 2.19832,3.13418 2.19832,3.99098 0,0.34177 0.81857,0.87939 2.91042,1.91152 2.04942,1.01119 2.91042,1.57307 2.91042,1.89932 0,0.66094 -0.55649,0.86606 -3.83646,1.41408 -2.89167,0.48314 -2.91764,0.49407 -4.0321,1.69529 -0.96679,1.04206 -1.11294,1.35158 -1.05833,2.24144 0.0585,0.953 0.18347,1.10567 1.62467,1.98438 1.1976,0.73019 1.75232,1.29094 2.38124,2.40715 0.72491,1.28656 0.81709,1.68519 0.79535,3.43959 -0.0562,4.53682 -2.88814,8.54059 -7.15616,10.11737 -1.3561,0.501 -2.18082,0.58125 -6.57759,0.64005 -3.54432,0.0474 -5.38665,-0.0355 -6.24616,-0.28098 z m 11.28119,-1.62609 c 4.13325,-1.07657 6.72528,-4.23658 6.93406,-8.45348 0.13498,-2.72625 -0.30627,-3.60401 -2.4702,-4.91391 -1.78381,-1.0798 -2.48639,-2.17688 -2.48702,-3.88349 -2.6e-4,-1.02305 0.14423,-1.26911 1.60314,-2.72802 1.47261,-1.47262 1.73726,-1.62636 3.24114,-1.88293 0.90068,-0.15366 1.74158,-0.37543 1.86867,-0.49283 0.12709,-0.11741 -0.50344,-0.58424 -1.40117,-1.03742 -0.89774,-0.45317 -1.67469,-0.96832 -1.72657,-1.14476 -0.0519,-0.17644 -0.24246,-0.89337 -0.42352,-1.59316 -0.73738,-2.85012 -4.02393,-4.83347 -6.87573,-4.14933 -4.74457,1.1382 -6.42484,7.17001 -2.91069,10.44877 1.59259,1.48591 1.9678,2.88157 1.18279,4.3996 -0.66815,1.29206 -1.70465,1.55352 -6.15856,1.55352 -2.1693,0 -4.32989,-0.0771 -4.80132,-0.17143 -1.06129,-0.21225 -2.36692,-1.4884 -3.3264,-3.25127 -0.40106,-0.73689 -0.83229,-1.3398 -0.95829,-1.3398 -0.57014,0 -0.79125,1.61121 -0.67173,4.89479 0.0997,2.73947 0.26467,3.87043 0.81039,5.55625 1.35321,4.18036 3.81039,6.87023 7.39066,8.09053 1.87727,0.63985 8.86541,0.70134 11.18035,0.0984 z m -7.94544,-3.65186 c -1.99325,-0.51657 -3.51279,-1.40051 -5.24103,-3.04878 -1.81867,-1.73453 -2.42566,-2.71157 -1.96854,-3.16869 0.34296,-0.34296 1.25644,-0.41359 1.25644,-0.0971 0,0.59947 3.20602,3.38147 4.72621,4.10114 3.61581,1.71173 8.40114,0.5441 7.56097,-1.84489 -0.14311,-0.40694 -0.63996,-0.97877 -1.10412,-1.27074 -0.87738,-0.55189 -1.16056,-1.55117 -0.51028,-1.80071 0.59471,-0.22821 2.02946,0.63978 2.70793,1.63824 0.85147,1.25305 0.88498,3.10771 0.0719,3.98042 -1.35309,1.45238 -4.93859,2.17486 -7.49951,1.51116 z m 9.13092,-21.99617 c -0.47144,-0.56804 -0.1224,-1.24783 0.58863,-1.1464 0.67811,0.0967 0.96234,0.96632 0.42679,1.30572 -0.49602,0.31434 -0.64124,0.29155 -1.01542,-0.15932 z"
                    id="path110"/>
            <path
                    style="fill:#2c5e72;stroke-width:0.264583"
                    d="m 402.83461,396.78038 c -0.21614,-0.13796 -0.19626,-0.75942 0.0737,-2.30553 0.20329,-1.16417 0.33644,-2.47386 0.29589,-2.91042 -0.0662,-0.71303 -0.17626,-0.8022 -1.08208,-0.87683 -0.86597,-0.0713 -0.99675,-0.16477 -0.92604,-0.66146 0.0648,-0.4556 0.30473,-0.60646 1.12998,-0.71067 0.97878,-0.12359 1.06132,-0.20186 1.25563,-1.19062 0.41675,-2.12064 0.47507,-2.24896 1.02218,-2.24896 0.50023,0 0.52488,0.10944 0.35766,1.5875 l -0.1796,1.5875 h 1.2442 c 1.03837,0 1.22958,0.0759 1.1558,0.45899 -0.058,0.30091 -0.43376,0.51514 -1.09118,0.622 -0.55154,0.0896 -1.1047,0.27005 -1.22926,0.4009 -0.12455,0.13084 -0.40485,1.4725 -0.62288,2.98145 -0.38674,2.67657 -0.80465,3.64873 -1.40401,3.26615 z m -28.15186,-2.41659 c -0.59959,-1.15249 -1.2468,-2.15554 -1.43823,-2.229 -0.19144,-0.0735 -0.59986,0.0428 -0.90761,0.25835 -0.42899,0.30048 -0.55954,0.67027 -0.55954,1.58494 0,1.43934 -0.37067,2.21656 -1.05713,2.21656 -0.48613,0 -0.50344,-0.18391 -0.37993,-4.0349 0.22225,-6.92908 0.25527,-7.06483 1.72066,-7.07355 1.08863,-0.006 3.03767,0.76194 3.68776,1.45393 0.42682,0.45433 0.59872,0.95818 0.59872,1.7549 0,0.92898 -0.14646,1.24845 -0.86786,1.89301 l -0.86785,0.77543 0.55615,1.09424 c 0.30589,0.60182 0.87451,1.65198 1.26361,2.33366 0.75817,1.32829 0.71006,2.06786 -0.13451,2.06786 -0.3865,0 -0.81027,-0.55009 -1.61424,-2.09543 z m -0.82841,-4.52081 c 0.76629,-0.5551 1.09803,-0.98895 1.09803,-1.43601 0,-0.80254 -1.14149,-1.73733 -2.12149,-1.73733 -0.83433,0 -1.04417,0.48033 -1.04989,2.4033 -0.006,1.85581 0.3779,1.99822 2.07335,0.77004 z m 41.13656,4.69801 c 0.50923,-5.1673 0.96747,-8.97307 1.10774,-9.20002 0.088,-0.14236 0.33153,-0.25883 0.54122,-0.25883 0.49348,0 0.48915,0.8915 -0.0294,6.06079 -0.42552,4.24188 -0.64301,5.05171 -1.35671,5.05171 -0.36334,0 -0.40191,-0.24266 -0.26286,-1.65365 z m 3.18917,-0.13229 c 0.92644,-9.36866 0.91906,-9.32656 1.63479,-9.32656 0.49305,0 0.49027,1.33939 -0.0131,6.28675 -0.39918,3.92366 -0.65579,4.82575 -1.37273,4.82575 -0.36644,0 -0.40103,-0.24813 -0.24896,-1.78594 z m -22.28163,1.24033 c -0.92592,-0.37111 -0.54801,-0.90925 0.64042,-0.91195 2.10022,-0.005 2.21657,-0.70386 0.37393,-2.24661 -1.03289,-0.86478 -1.32292,-1.27708 -1.32292,-1.88061 0,-1.49609 2.67696,-2.39362 3.98356,-1.3356 0.71982,0.58288 0.54873,1.55076 -0.21548,1.21897 -0.80179,-0.34811 -2.11173,-0.44488 -2.28248,-0.1686 -0.26162,0.42331 0.0537,0.92528 1.02813,1.63667 1.53275,1.11901 1.68333,2.61444 0.35682,3.54357 -0.67041,0.46957 -1.61716,0.52284 -2.56198,0.14416 z m 14.37581,-0.15862 c -1.94778,-1.02684 -2.48833,-2.2314 -1.46194,-3.25779 0.28734,-0.28734 0.85288,-0.59098 1.25677,-0.67474 2.49298,-0.51705 2.83983,-0.82004 2.09883,-1.83341 -0.35601,-0.48688 -0.4165,-0.48928 -1.53785,-0.061 -1.42575,0.5445 -1.54644,0.54874 -1.54644,0.0543 0,-0.51118 1.87521,-1.46058 2.88487,-1.46058 0.5157,0 0.93206,0.20383 1.20117,0.58804 0.66679,0.95197 0.45433,4.16564 -0.42029,6.35727 -0.33979,0.85145 -1.21346,0.95309 -2.47512,0.28796 z m 1.71048,-1.39505 c 0.67586,-1.26286 0.10503,-2.02809 -1.26849,-1.70046 -1.55097,0.36995 -1.64409,1.2075 -0.20396,1.83443 1.08196,0.471 1.15209,0.46462 1.47245,-0.13397 z m -31.92201,1.18285 c -2.06308,-0.89729 -2.2405,-4.44854 -0.29049,-5.81439 0.7483,-0.52413 2.30086,-0.53191 3.03852,-0.0152 0.31229,0.21874 0.70672,0.81866 0.87652,1.33316 0.40094,1.21485 0.11531,1.56079 -1.78266,2.15907 -2.33925,0.73739 -2.16131,1.81415 0.25766,1.55915 0.99206,-0.10457 1.25677,-0.0501 1.25677,0.25848 0,0.43229 -1.03711,0.91277 -1.93545,0.89667 -0.31795,-0.006 -0.95734,-0.1753 -1.42087,-0.3769 z m 1.19163,-3.19486 c 1.4222,-0.42235 1.55728,-0.60241 1.09705,-1.46236 -0.59751,-1.11645 -2.63653,-0.2729 -2.63653,1.09073 0,0.42832 0.0379,0.77875 0.0843,0.77875 0.0463,0 0.70119,-0.1832 1.45521,-0.40712 z m 3.87991,1.55435 c 0.24037,-2.56689 0.65713,-3.89094 1.26134,-4.00729 0.547,-0.10533 0.54967,-0.0224 0.10907,3.38923 -0.30003,2.32318 -0.37157,2.52027 -0.94459,2.60244 -0.61879,0.0887 -0.6196,0.0849 -0.42582,-1.98438 z m 3.20583,1.80568 c -0.17053,-0.27593 0.47318,-6.05408 0.69969,-6.2806 0.38218,-0.38218 0.72926,0.26458 0.72926,1.35893 0,0.64626 0.0943,1.17501 0.20949,1.17501 0.11523,0 0.73533,-0.53578 1.37801,-1.19062 2.01056,-2.04861 2.82373,-1.34917 2.38234,2.04912 -0.13714,1.0558 -0.25301,2.12798 -0.25751,2.38265 -0.005,0.29474 -0.21473,0.46302 -0.57655,0.46302 -0.54746,0 -0.5624,-0.0775 -0.40593,-2.10665 0.0893,-1.15866 0.0571,-2.17179 -0.0718,-2.25142 -0.31919,-0.19726 -1.70048,1.52257 -2.58953,3.22419 -0.68386,1.30889 -1.17644,1.69584 -1.49749,1.17637 z m -2.22839,-7.50983 c -0.21756,-0.21756 -0.21977,-0.39407 -0.008,-0.64908 0.38611,-0.46522 0.92685,-0.44454 1.11378,0.0426 0.2006,0.52277 -0.69699,1.01514 -1.10564,0.60649 z m -15.72381,-12.31027 c 0.0741,-2.58299 0.24268,-4.90471 0.37456,-5.15937 0.2041,-0.3941 0.63347,-0.46302 2.88462,-0.46302 2.13973,0 2.67475,0.078 2.8015,0.40828 0.24854,0.64767 -0.0821,0.77428 -2.28327,0.87424 -2.06262,0.0937 -2.06831,0.096 -2.22791,0.89398 -0.25376,1.26879 -0.18709,2.45309 0.15748,2.79766 0.17463,0.17463 0.74017,0.31933 1.25677,0.32156 1.16288,0.005 1.72865,0.33929 1.5153,0.89528 -0.11938,0.3111 -0.51778,0.42358 -1.50031,0.42358 -1.19256,0 -1.36578,0.0737 -1.59581,0.67868 -0.14191,0.37328 -0.25803,1.06384 -0.25803,1.53459 0,0.87578 -0.39085,1.4909 -0.94734,1.4909 -0.23339,0 -0.27827,-1.18703 -0.17756,-4.69636 z m 13.54464,4.3279 c -0.16636,-0.16635 0.19611,-5.82875 0.41783,-6.52733 0.27205,-0.85715 1.03906,-0.52135 1.13716,0.49787 0.0463,0.48059 0.16588,0.8368 0.26582,0.79158 1.72911,-0.78224 2.75166,-1.0552 3.00478,-0.80208 0.49678,0.49678 0.0401,1.03138 -1.14936,1.34539 -1.88271,0.49703 -2.18727,0.87371 -2.33764,2.89117 -0.11427,1.53317 -0.20586,1.78551 -0.67234,1.85229 -0.29703,0.0425 -0.59685,0.0205 -0.66625,-0.0489 z m 7.95318,-0.0687 c -2.22121,-0.73177 -3.00694,-2.63453 -1.8628,-4.51098 0.68433,-1.12235 1.8839,-1.71532 3.26673,-1.61484 0.90634,0.0659 1.10961,0.17757 1.10961,0.6098 0,0.43364 -0.22394,0.55492 -1.24043,0.67181 -0.68224,0.0784 -1.48591,0.3648 -1.78594,0.63632 -0.70734,0.64014 -0.6997,1.84497 0.0163,2.56093 0.48508,0.48507 0.75597,0.53894 1.98438,0.39456 1.28245,-0.15072 1.42261,-0.11738 1.42261,0.3384 0,0.74722 -1.74922,1.29655 -2.91041,0.914 z m 6.13782,-0.27007 c -1.04108,-0.51308 -1.63991,-1.55914 -1.63991,-2.8647 0,-1.90024 1.23821,-3.30729 2.91042,-3.30729 1.21991,0 2.00067,0.56664 2.3849,1.73085 0.40688,1.23285 0.14181,1.52914 -2.00805,2.24457 -0.93487,0.3111 -1.69977,0.67081 -1.69977,0.79934 0,0.49048 1.16437,0.83888 2.28861,0.68479 0.91846,-0.12589 1.15097,-0.0773 1.15097,0.2406 0,0.43673 -1.02518,0.9179 -1.93545,0.90841 -0.31795,-0.003 -0.97122,-0.19977 -1.45172,-0.43657 z m 1.22249,-3.13953 c 1.4222,-0.42235 1.55727,-0.60241 1.09704,-1.46235 -0.5975,-1.11645 -2.63652,-0.27291 -2.63652,1.09073 0,0.42831 0.0379,0.77874 0.0843,0.77874 0.0463,0 0.70119,-0.1832 1.45521,-0.40712 z m -21.27691,2.5489 c -1.18819,-0.53961 -1.42924,-0.92901 -1.42924,-2.30885 0,-3.55757 4.62461,-4.96362 5.83704,-1.77467 0.62567,1.64563 -0.15843,3.54861 -1.73329,4.20663 -1.15823,0.48393 -1.35811,0.47473 -2.67451,-0.12311 z m 2.7209,-1.39414 c 1.21781,-1.14408 0.48116,-3.39347 -1.11132,-3.39347 -0.78376,0 -1.71336,1.31642 -1.71491,2.4285 -0.002,1.48224 1.66848,2.05261 2.82623,0.96497 z m 27.48998,-6.07083 c -3.21756,-0.75463 -6.48363,-3.3965 -8.06029,-6.51984 -1.62611,-3.22131 -2.48068,-8.02322 -2.11296,-11.87293 0.23153,-2.42382 0.7852,-3.36206 2.05835,-3.48802 1.06727,-0.1056 1.37034,0.14991 2.80102,2.36153 0.63563,0.98257 1.39379,1.91393 1.68483,2.06968 0.31234,0.16716 2.25395,0.28319 4.73886,0.28319 3.74229,0 4.25834,-0.0537 4.6476,-0.48385 0.6811,-0.7526 0.53092,-1.3193 -0.71765,-2.70801 -1.81309,-2.01659 -2.15247,-2.91304 -2.14721,-5.67168 0.005,-2.72819 0.43262,-3.81407 2.15585,-5.47705 2.9528,-2.84955 7.52549,-2.84955 10.50509,0 1.00656,0.96264 2.27581,3.21608 2.28089,4.04952 0.002,0.27598 0.97653,0.89807 2.78588,1.77777 2.67402,1.30009 3.39225,1.91443 2.86021,2.44647 -0.13618,0.13617 -1.67004,0.50104 -3.40857,0.8108 -3.16043,0.56312 -3.16117,0.56343 -4.29754,1.78315 -0.9997,1.07303 -1.12714,1.34716 -1.05833,2.27664 0.0655,0.88524 0.22532,1.14318 0.98463,1.5895 3.004,1.76575 4.29457,4.31649 3.77387,7.45883 -0.79735,4.8118 -4.49964,8.58248 -9.17819,9.3477 -1.95632,0.31997 -8.88547,0.29749 -10.29634,-0.0334 z m 12.60066,-2.29166 c 3.28523,-1.61814 5.28094,-4.70518 5.34002,-8.26014 0.0359,-2.16206 -0.54682,-3.24995 -2.36295,-4.4112 -2.35985,-1.50891 -2.50327,-1.71496 -2.50327,-3.59631 0,-1.67317 0.003,-1.67932 1.45274,-3.17628 1.36063,-1.40478 1.56611,-1.51906 3.24114,-1.80265 0.98363,-0.16653 1.89759,-0.4044 2.03102,-0.52859 0.13945,-0.1298 -0.50365,-0.56063 -1.51254,-1.01329 -1.43007,-0.64163 -1.78569,-0.92503 -1.92002,-1.5301 -0.80457,-3.62414 -2.86128,-5.48121 -6.07046,-5.48121 -3.50372,0 -5.95313,2.52356 -5.95313,6.13335 0,1.78359 0.93627,3.97957 1.9915,4.67098 1.45917,0.95609 1.83104,3.21972 0.73179,4.45463 -0.9157,1.02871 -1.98441,1.25358 -5.95768,1.25358 -2.07931,0 -4.18753,-0.11672 -4.68494,-0.25937 -1.15851,-0.33226 -2.22872,-1.36386 -3.2306,-3.11407 -1.39255,-2.43266 -1.80536,-1.82639 -1.81104,2.65975 -0.008,6.05064 1.95769,10.76673 5.50344,13.20628 2.24897,1.54733 3.56752,1.7989 9.0515,1.72693 l 4.90125,-0.0643 z m -8.92866,-2.98593 c -0.73297,-0.0966 -2.04121,-0.51911 -2.90722,-0.93897 -1.88154,-0.91221 -5.15282,-3.98377 -5.15282,-4.83825 0,-1.18742 0.76214,-0.89373 2.59775,1.00107 2.39987,2.47726 4.15543,3.319 6.92725,3.32139 2.65422,0.002 4.06312,-0.64558 4.18571,-1.92477 0.0718,-0.74958 -0.0834,-1.03862 -1.0246,-1.90752 -1.15259,-1.06405 -1.2703,-1.83925 -0.27929,-1.83925 0.65921,0 2.04886,1.16276 2.55165,2.13505 1.63759,3.16676 -1.8106,5.66165 -6.89843,4.99125 z m 8.17553,-22.33907 c -0.0914,-0.23827 -0.044,-0.55544 0.10537,-0.70482 0.43129,-0.4313 1.25386,-0.14062 1.25386,0.44309 0,0.67301 -1.11875,0.88844 -1.35923,0.26173 z"
                    id="path108"/>
        </g>
    </g>
</svg>
